<svg width="28" height="27" viewBox="0 0 28 27" fill="none" xmlns="http://www.w3.org/2000/svg">
<path d="M22.2945 5.45205H15.0411V1.85616C15.0411 1.62909 14.9509 1.41133 14.7903 1.25076C14.6298 1.0902 14.412 1 14.1849 1C13.9579 1 13.7401 1.0902 13.5795 1.25076C13.419 1.41133 13.3288 1.62909 13.3288 1.85616V5.45205H6.07534C4.72983 5.45386 3.43995 5.98917 2.48853 6.94058C1.53712 7.892 1.00181 9.18188 1 10.5274V23.7842C0.999997 24.0761 1.05765 24.365 1.16964 24.6345C1.28164 24.904 1.44577 25.1488 1.65261 25.3546C1.85945 25.5605 2.10492 25.7235 2.37494 25.8343C2.64495 25.945 2.93419 26.0013 3.22603 26H25.1438C25.7315 26 26.2951 25.7665 26.7106 25.351C27.1261 24.9355 27.3596 24.3719 27.3596 23.7842V10.5274C27.3578 9.18366 26.8239 7.89533 25.8747 6.9442C24.9255 5.99308 23.6382 5.45658 22.2945 5.45205ZM6.07534 7.16438H22.2945C23.1859 7.16619 24.0402 7.52109 24.6705 8.15138C25.3008 8.78167 25.6557 9.63602 25.6575 10.5274V14.6746C24.6482 14.6183 23.653 14.4105 22.7055 14.0582C21.3133 13.5435 19.8366 13.296 18.3527 13.3288C16.8677 13.2958 15.3898 13.5432 13.9966 14.0582C12.7793 14.5115 11.4869 14.7289 10.1883 14.6986C8.88982 14.7285 7.59745 14.5112 6.38013 14.0582C5.20515 13.6179 3.96638 13.3715 2.71233 13.3288V10.5274C2.71414 9.63602 3.06903 8.78167 3.69933 8.15138C4.32962 7.52109 5.18397 7.16619 6.07534 7.16438ZM25.1438 24.2876H3.22603C3.09251 24.2876 2.96446 24.2346 2.87005 24.1402C2.77564 24.0458 2.7226 23.9177 2.7226 23.7842V15.0411C3.79053 15.0815 4.84505 15.2931 5.84589 15.6678C7.23381 16.1862 8.70702 16.4383 10.1883 16.4109C11.6677 16.4423 13.1396 16.1948 14.5274 15.6815C15.7503 15.2271 17.0485 15.0097 18.3527 15.0411C19.6512 15.0112 20.9436 15.2285 22.1609 15.6815C23.283 16.0964 24.4624 16.3355 25.6575 16.3904V23.7842C25.6575 23.8512 25.6442 23.9175 25.6182 23.9793C25.5923 24.041 25.5543 24.097 25.5064 24.1439C25.4586 24.1908 25.4019 24.2276 25.3396 24.2523C25.2774 24.277 25.2108 24.289 25.1438 24.2876Z" fill="#5F73F1" stroke="#5F73F1" stroke-width="0.5"/>
</svg>
