<svg width="26" height="25" viewBox="0 0 26 25" fill="none" xmlns="http://www.w3.org/2000/svg">
<path d="M25.0177 15.4806V15.4622V14.7285V11.1152C25.0177 10.7667 24.8343 10.4365 24.5225 10.2715C24.2107 10.1064 23.8438 10.1064 23.532 10.2898L19.5886 12.6742C19.5886 11.2986 18.855 10.088 17.7728 9.39105C18.8917 8.40059 19.5886 6.96992 19.5886 5.37417C19.5886 2.42113 17.1859 0 14.2146 0C11.2616 0 8.85891 2.40279 8.84057 5.33749C8.41871 3.31988 6.62125 1.79751 4.47531 1.79751C2.01756 1.79751 0 3.79677 0 6.27293C0 7.59354 0.586926 8.80411 1.504 9.61115C0.586926 10.3265 0 11.4453 0 12.6926V21.0932C0 23.2392 1.76078 25 3.90672 25H15.6819C17.8279 25 19.5886 23.2392 19.5886 21.0932V21.0565L23.532 23.4043C23.8255 23.5877 24.2107 23.5877 24.5225 23.4226C24.8343 23.2575 25.0177 22.9274 25.0177 22.5789V21.4784V20.3778V20.3595V15.5356V15.4806ZM23.0735 20.3045V20.3228V20.7997L19.1301 18.4519C18.8366 18.2685 18.4515 18.2685 18.1397 18.4336C17.8279 18.5987 17.6444 18.9288 17.6444 19.2773V21.0382C17.6444 22.1203 16.7641 22.9824 15.7003 22.9824H3.92506C2.84292 22.9824 1.98087 22.102 1.98087 21.0382V12.6376C1.98087 11.5554 2.86126 10.6933 3.92506 10.6933H15.7003C16.7824 10.6933 17.6444 11.5737 17.6444 12.6376V14.3434C17.6444 14.6919 17.8279 15.022 18.1397 15.1871C18.4515 15.3522 18.8183 15.3522 19.1301 15.1687L23.0735 12.7843V14.6735V15.4072V15.4255V20.2495V20.3045ZM4.49365 8.74908C3.0997 8.74908 1.98087 7.61189 1.98087 6.23624C1.98087 4.84226 3.11804 3.7234 4.49365 3.7234C5.8876 3.7234 7.00642 4.8606 7.00642 6.23624C7.00642 7.63023 5.86926 8.74908 4.49365 8.74908ZM8.18027 8.74908C8.65715 8.05209 8.93227 7.22671 8.95061 6.34629C9.11569 7.24505 9.5192 8.07043 10.0878 8.74908H8.18027ZM14.2329 8.74908C12.3438 8.74908 10.8214 7.20836 10.8214 5.33749C10.8214 3.44828 12.3621 1.9259 14.2329 1.9259C16.1221 1.9259 17.6444 3.46662 17.6444 5.33749C17.6444 7.22671 16.1038 8.74908 14.2329 8.74908Z" fill="#5F73F1"/>
</svg>
