<svg width="27" height="27" viewBox="0 0 27 27" fill="none" xmlns="http://www.w3.org/2000/svg">
<path fill-rule="evenodd" clip-rule="evenodd" d="M23.3761 9.4102L24.963 10.997V10.9942C25.627 11.6582 26 12.5588 26 13.4979C26 14.4369 25.627 15.3375 24.963 16.0016L23.3761 17.5898V19.8357C23.3751 20.7745 23.0018 21.6746 22.3379 22.3384C21.674 23.0023 20.774 23.3757 19.8351 23.3767H17.5906L16.0037 24.963C15.3397 25.627 14.4391 26 13.5 26C12.5609 26 11.6603 25.627 10.9963 24.963L9.40941 23.3767H7.16487C6.22604 23.3757 5.32595 23.0023 4.6621 22.3384C3.99824 21.6746 3.62485 20.7745 3.62385 19.8357V17.5912L2.037 16.0044C1.37302 15.3404 1 14.4398 1 13.5007C1 12.5617 1.37302 11.6611 2.037 10.997L3.62385 9.40878V7.16428C3.62485 6.22547 3.99824 5.3254 4.6621 4.66155C5.32595 3.99771 6.22604 3.62433 7.16487 3.62333H9.40799L10.9948 2.03698C11.6589 1.37301 12.5595 1 13.4986 1C14.4376 1 15.3383 1.37301 16.0023 2.03698L17.5906 3.62333H19.8351C20.774 3.62433 21.674 3.99771 22.3379 4.66155C23.0018 5.3254 23.3751 6.22547 23.3761 7.16428V9.4102ZM22.1675 16.7971L23.9616 15.003L23.9611 15.0016C24.1584 14.8043 24.3149 14.5701 24.4217 14.3123C24.5285 14.0546 24.5834 13.7783 24.5834 13.4993C24.5834 13.2203 24.5285 12.944 24.4217 12.6862C24.3149 12.4285 24.1584 12.1943 23.9611 11.997L22.167 10.2029C22.1013 10.1371 22.0491 10.059 22.0135 9.97305C21.978 9.8871 21.9597 9.79499 21.9597 9.70197V7.16428C21.9591 6.601 21.7351 6.06097 21.3368 5.66267C20.9385 5.26437 20.3984 5.04034 19.8351 5.03971H17.2974C17.2044 5.03975 17.1123 5.02147 17.0263 4.98591C16.9404 4.95035 16.8623 4.8982 16.7965 4.83245L15.0023 3.03836C14.805 2.84107 14.5708 2.68458 14.3131 2.57781C14.0553 2.47103 13.779 2.41608 13.5 2.41608C13.221 2.41608 12.9447 2.47103 12.6869 2.57781C12.4292 2.68458 12.195 2.84107 11.9977 3.03836L10.2035 4.83245C10.1377 4.8982 10.0596 4.95035 9.97369 4.98591C9.88774 5.02147 9.79563 5.03975 9.70261 5.03971H7.16487C6.60158 5.04034 6.06154 5.26437 5.66323 5.66267C5.26493 6.06097 5.04088 6.601 5.04026 7.16428V9.70197C5.0403 9.79499 5.02202 9.8871 4.98646 9.97305C4.95089 10.059 4.89874 10.1371 4.83299 10.2029L3.03887 11.997C2.84158 12.1943 2.68508 12.4285 2.57831 12.6862C2.47153 12.944 2.41658 13.2203 2.41658 13.4993C2.41658 13.7783 2.47153 14.0546 2.57831 14.3123C2.68508 14.5701 2.84158 14.8043 3.03887 15.0016L4.83299 16.7957C4.89874 16.8615 4.95089 16.9396 4.98646 17.0255C5.02202 17.1115 5.0403 17.2036 5.04026 17.2966V19.8357C5.04088 20.399 5.26493 20.939 5.66323 21.3373C6.06154 21.7356 6.60158 21.9597 7.16487 21.9603H9.70261C9.79563 21.9602 9.88774 21.9785 9.97369 22.0141C10.0596 22.0497 10.1377 22.1018 10.2035 22.1676L11.9977 23.9616C12.195 24.1589 12.4292 24.3154 12.6869 24.4222C12.9447 24.529 13.221 24.5839 13.5 24.5839C13.779 24.5839 14.0553 24.529 14.3131 24.4222C14.5708 24.3154 14.805 24.1589 15.0023 23.9616L16.7965 22.1676C16.8623 22.1018 16.9404 22.0497 17.0263 22.0141C17.1123 21.9785 17.2044 21.9602 17.2974 21.9603H19.8356C20.3989 21.9597 20.9389 21.7356 21.3372 21.3373C21.7355 20.939 21.9596 20.399 21.9602 19.8357V17.298C21.9602 17.205 21.9785 17.1129 22.014 17.0269C22.0496 16.941 22.1017 16.8629 22.1675 16.7971ZM10.1983 17.8023L17.8031 10.1977C17.9321 10.0641 18.0034 9.88525 18.0018 9.69956C18.0002 9.51388 17.9257 9.33625 17.7944 9.20495C17.6631 9.07364 17.4855 8.99916 17.2998 8.99755C17.1141 8.99594 16.9352 9.06732 16.8017 9.19632L9.19695 16.8009C9.06794 16.9344 8.99656 17.1133 8.99817 17.299C8.99979 17.4847 9.07427 17.6623 9.20557 17.7936C9.33688 17.9249 9.51451 17.9994 9.7002 18.001C9.88589 18.0026 10.0648 17.9313 10.1983 17.8023ZM9 10.3048C9 10.954 9.18222 11.4458 9.83011 11.7015C11.956 12.567 12.7456 9.22288 10.5185 9.00649C9.76937 8.9278 9 9.57696 9 10.2851V10.3048ZM16.3179 15.0344C16.1946 15.0644 16.1329 15.0658 16.0837 15.067H16.0836C16.0679 15.0674 16.0534 15.0677 16.0386 15.0689L16.3179 15.0344ZM16.0711 15.0625L16.0386 15.0689C15.9781 15.074 15.9121 15.0939 15.7308 15.1918C15.5485 15.2902 15.4473 15.3688 15.3258 15.5065C14.4755 16.5295 15.4271 17.9851 16.6014 17.8081C18.3831 17.5327 18.2413 15.2115 16.6014 15.0148C16.5734 15.0093 16.5593 15.0054 16.5506 15.003C16.545 15.0014 16.5417 15.0004 16.5382 15.0001C16.5331 14.9996 16.5277 15.0006 16.5144 15.003C16.5007 15.0054 16.4786 15.0093 16.4394 15.0148C16.2235 15.0322 16.1548 15.0459 16.0711 15.0625Z" fill="#5F73F1"/>
<path d="M24.963 10.997L24.7862 11.1738L25.213 11.6006V10.997H24.963ZM23.3761 9.4102H23.1261V9.51375L23.1994 9.58697L23.3761 9.4102ZM24.963 10.9942L25.1398 10.8174L24.713 10.3906V10.9942H24.963ZM24.963 16.0016L24.7862 15.8248L24.7861 15.8249L24.963 16.0016ZM23.3761 17.5898L23.1993 17.4131L23.1261 17.4863V17.5898H23.3761ZM23.3761 19.8357L23.6261 19.836V19.8357H23.3761ZM19.8351 23.3767V23.6267H19.8354L19.8351 23.3767ZM17.5906 23.3767V23.1267H17.4871L17.4138 23.1999L17.5906 23.3767ZM16.0037 24.963L15.827 24.7862L15.827 24.7862L16.0037 24.963ZM10.9963 24.963L11.173 24.7862L11.173 24.7862L10.9963 24.963ZM9.40941 23.3767L9.58616 23.1999L9.51294 23.1267H9.40941V23.3767ZM7.16487 23.3767L7.16461 23.6267H7.16487V23.3767ZM3.62385 19.8357H3.37385L3.37385 19.836L3.62385 19.8357ZM3.62385 17.5912H3.87385V17.4877L3.80062 17.4144L3.62385 17.5912ZM2.037 16.0044L1.86021 16.1812L1.86022 16.1812L2.037 16.0044ZM2.037 10.997L2.21378 11.1738L2.21385 11.1737L2.037 10.997ZM3.62385 9.40878L3.8007 9.58548L3.87385 9.51227V9.40878H3.62385ZM3.62385 7.16428L3.37385 7.16402V7.16428H3.62385ZM4.6621 4.66155L4.48532 4.48478L4.6621 4.66155ZM7.16487 3.62333V3.37333L7.16461 3.37333L7.16487 3.62333ZM9.40799 3.62333V3.87333H9.51152L9.58474 3.80013L9.40799 3.62333ZM10.9948 2.03698L11.1716 2.21378L11.1716 2.21377L10.9948 2.03698ZM16.0023 2.03698L15.8256 2.21377L15.8257 2.21386L16.0023 2.03698ZM17.5906 3.62333L17.4139 3.80021L17.4871 3.87333H17.5906V3.62333ZM19.8351 3.62333L19.8354 3.37333H19.8351V3.62333ZM22.3379 4.66155L22.5147 4.48478V4.48478L22.3379 4.66155ZM23.3761 7.16428H23.6261V7.16402L23.3761 7.16428ZM23.9616 15.003L24.1384 15.1798L24.2477 15.0705L24.1987 14.9239L23.9616 15.003ZM22.1675 16.7971L21.9907 16.6203L21.9907 16.6204L22.1675 16.7971ZM23.9611 15.0016L23.7844 14.8248L23.675 14.9341L23.724 15.0808L23.9611 15.0016ZM23.9611 11.997L23.7844 12.1738L23.7844 12.1738L23.9611 11.997ZM22.167 10.2029L21.9902 10.3796L21.9902 10.3797L22.167 10.2029ZM21.9597 9.70197L22.2097 9.70208V9.70197H21.9597ZM21.9597 7.16428H22.2097V7.16401L21.9597 7.16428ZM19.8351 5.03971L19.8354 4.78971H19.8351V5.03971ZM17.2974 5.03971V4.78971H17.2973L17.2974 5.03971ZM17.0263 4.98591L17.1219 4.7549L17.1219 4.7549L17.0263 4.98591ZM16.7965 4.83245L16.6197 5.00922L16.6197 5.00928L16.7965 4.83245ZM15.0023 3.03836L14.8256 3.21514L14.8256 3.21514L15.0023 3.03836ZM11.9977 3.03836L12.1744 3.21514L12.1744 3.21514L11.9977 3.03836ZM10.2035 4.83245L10.3803 5.00928L10.3803 5.00922L10.2035 4.83245ZM9.97369 4.98591L9.87811 4.7549V4.7549L9.97369 4.98591ZM9.70261 5.03971L9.70272 4.78971H9.70261V5.03971ZM7.16487 5.03971V4.78971L7.1646 4.78971L7.16487 5.03971ZM5.04026 7.16428L4.79026 7.16401V7.16428H5.04026ZM5.04026 9.70197H4.79026V9.70208L5.04026 9.70197ZM4.98646 9.97305L5.21746 10.0686H5.21746L4.98646 9.97305ZM4.83299 10.2029L5.00977 10.3797L5.00982 10.3796L4.83299 10.2029ZM3.03887 11.997L3.21565 12.1738H3.21565L3.03887 11.997ZM3.03887 15.0016L3.21565 14.8248L3.21565 14.8248L3.03887 15.0016ZM4.83299 16.7957L5.00982 16.619L5.00977 16.6189L4.83299 16.7957ZM4.98646 17.0255L5.21746 16.9299L5.21746 16.9299L4.98646 17.0255ZM5.04026 17.2966L4.79026 17.2965V17.2966H5.04026ZM5.04026 19.8357H4.79026L4.79026 19.836L5.04026 19.8357ZM7.16487 21.9603L7.1646 22.2103H7.16487V21.9603ZM9.70261 21.9603V22.2103H9.70272L9.70261 21.9603ZM10.2035 22.1676L10.3803 21.9908L10.3803 21.9907L10.2035 22.1676ZM11.9977 23.9616L12.1744 23.7849L12.1744 23.7849L11.9977 23.9616ZM15.0023 23.9616L14.8256 23.7849L14.8256 23.7849L15.0023 23.9616ZM16.7965 22.1676L16.6197 21.9907L16.6197 21.9908L16.7965 22.1676ZM17.0263 22.0141L17.1219 22.2451L17.1219 22.2451L17.0263 22.0141ZM17.2974 21.9603L17.2973 22.2103H17.2974V21.9603ZM19.8356 21.9603V22.2103H19.8359L19.8356 21.9603ZM21.9602 19.8357L22.2102 19.836V19.8357H21.9602ZM21.9602 17.298H22.2102V17.2979L21.9602 17.298ZM22.014 17.0269L21.783 16.9314V16.9314L22.014 17.0269ZM17.8031 10.1977L17.9799 10.3745L17.9829 10.3714L17.8031 10.1977ZM10.1983 17.8023L10.3721 17.9821L10.3751 17.979L10.1983 17.8023ZM16.8017 9.19632L16.6279 9.01647L16.6249 9.01954L16.8017 9.19632ZM9.19695 16.8009L9.02015 16.6241L9.01713 16.6272L9.19695 16.8009ZM9.83011 11.7015L9.92439 11.4699L9.9219 11.4689L9.83011 11.7015ZM10.5185 9.00649L10.4924 9.25513L10.4943 9.25532L10.5185 9.00649ZM16.0837 15.067V15.317L16.0895 15.3169L16.0837 15.067ZM16.3179 15.0344L16.3769 15.2774L16.2873 14.7863L16.3179 15.0344ZM16.0836 15.067V14.8169L16.0777 14.817L16.0836 15.067ZM16.0711 15.0625L16.1195 15.3078L16.1198 15.3077L16.0711 15.0625ZM15.7308 15.1918L15.612 14.9718H15.612L15.7308 15.1918ZM15.3258 15.5065L15.1383 15.3411L15.1336 15.3467L15.3258 15.5065ZM16.6014 17.8081L16.6386 18.0553L16.6395 18.0552L16.6014 17.8081ZM16.6014 15.0148L16.5537 15.2602L16.5626 15.2619L16.5716 15.263L16.6014 15.0148ZM16.5506 15.003L16.4833 15.2437L16.4833 15.2437L16.5506 15.003ZM16.5382 15.0001L16.5151 15.249L16.5151 15.249L16.5382 15.0001ZM16.5144 15.003L16.4707 14.7568L16.4707 14.7568L16.5144 15.003ZM16.4394 15.0148L16.4596 15.2639L16.4667 15.2634L16.4738 15.2624L16.4394 15.0148ZM25.1398 10.8202L23.5529 9.23342L23.1994 9.58697L24.7862 11.1738L25.1398 10.8202ZM24.713 10.9942V10.997H25.213V10.9942H24.713ZM26.25 13.4979C26.25 12.4925 25.8506 11.5283 25.1398 10.8174L24.7862 11.171C25.4033 11.7881 25.75 12.6251 25.75 13.4979H26.25ZM25.1398 16.1783C25.8506 15.4674 26.25 14.5032 26.25 13.4979H25.75C25.75 14.3706 25.4033 15.2076 24.7862 15.8248L25.1398 16.1783ZM23.553 17.7665L25.1399 16.1783L24.7861 15.8249L23.1993 17.4131L23.553 17.7665ZM23.6261 19.8357V17.5898H23.1261V19.8357H23.6261ZM22.5147 22.5152C23.2254 21.8046 23.6251 20.841 23.6261 19.836L23.1261 19.8354C23.1252 20.708 22.7782 21.5446 22.1611 22.1617L22.5147 22.5152ZM19.8354 23.6267C20.8404 23.6256 21.804 23.2259 22.5147 22.5152L22.1611 22.1617C21.5441 22.7787 20.7075 23.1257 19.8349 23.1267L19.8354 23.6267ZM17.5906 23.6267H19.8351V23.1267H17.5906V23.6267ZM16.1805 25.1398L17.7673 23.5535L17.4138 23.1999L15.827 24.7862L16.1805 25.1398ZM13.5 26.25C14.5054 26.25 15.4696 25.8507 16.1805 25.1398L15.827 24.7862C15.2098 25.4033 14.3728 25.75 13.5 25.75V26.25ZM10.8195 25.1398C11.5304 25.8507 12.4946 26.25 13.5 26.25V25.75C12.6272 25.75 11.7902 25.4033 11.173 24.7862L10.8195 25.1398ZM9.23266 23.5535L10.8195 25.1398L11.173 24.7862L9.58616 23.1999L9.23266 23.5535ZM7.16487 23.6267H9.40941V23.1267H7.16487V23.6267ZM4.48532 22.5152C5.19599 23.2259 6.15957 23.6256 7.16461 23.6267L7.16514 23.1267C6.29252 23.1257 5.45591 22.7787 4.83887 22.1617L4.48532 22.5152ZM3.37385 19.836C3.37492 20.841 3.77465 21.8046 4.48532 22.5152L4.83887 22.1617C4.22184 21.5446 3.87478 20.708 3.87385 19.8354L3.37385 19.836ZM3.37385 17.5912V19.8357H3.87385V17.5912H3.37385ZM1.86022 16.1812L3.44707 17.768L3.80062 17.4144L2.21377 15.8276L1.86022 16.1812ZM0.75 13.5007C0.75 14.5061 1.14935 15.4702 1.86021 16.1812L2.21378 15.8276C1.59668 15.2105 1.25 14.3735 1.25 13.5007H0.75ZM1.86021 10.8202C1.14935 11.5312 0.75 12.4954 0.75 13.5007H1.25C1.25 12.628 1.59668 11.7909 2.21378 11.1738L1.86021 10.8202ZM3.447 9.23208L1.86015 10.8203L2.21385 11.1737L3.8007 9.58548L3.447 9.23208ZM3.37385 7.16428V9.40878H3.87385V7.16428H3.37385ZM4.48532 4.48478C3.77465 5.19544 3.37492 6.15899 3.37385 7.16402L3.87385 7.16455C3.87478 6.29195 4.22184 5.45536 4.83887 4.83833L4.48532 4.48478ZM7.16461 3.37333C6.15957 3.3744 5.19599 3.77412 4.48532 4.48478L4.83887 4.83833C5.45591 4.22131 6.29252 3.87426 7.16514 3.87333L7.16461 3.37333ZM9.40799 3.37333H7.16487V3.87333H9.40799V3.37333ZM10.8181 1.86018L9.23125 3.44652L9.58474 3.80013L11.1716 2.21378L10.8181 1.86018ZM13.4986 0.75C12.4932 0.75 11.529 1.14934 10.8181 1.86019L11.1716 2.21377C11.7888 1.59667 12.6258 1.25 13.4986 1.25V0.75ZM16.1791 1.86019C15.4681 1.14934 14.5039 0.75 13.4986 0.75V1.25C14.3714 1.25 15.2084 1.59667 15.8256 2.21377L16.1791 1.86019ZM17.7673 3.44644L16.179 1.8601L15.8257 2.21386L17.4139 3.80021L17.7673 3.44644ZM19.8351 3.37333H17.5906V3.87333H19.8351V3.37333ZM22.5147 4.48478C21.804 3.77412 20.8404 3.3744 19.8354 3.37333L19.8349 3.87333C20.7075 3.87426 21.5441 4.22131 22.1611 4.83833L22.5147 4.48478ZM23.6261 7.16402C23.6251 6.15899 23.2254 5.19544 22.5147 4.48478L22.1611 4.83833C22.7782 5.45536 23.1252 6.29195 23.1261 7.16455L23.6261 7.16402ZM23.6261 9.4102V7.16428H23.1261V9.4102H23.6261ZM23.7848 14.8262L21.9907 16.6203L22.3443 16.9739L24.1384 15.1798L23.7848 14.8262ZM23.724 15.0808L23.7245 15.0822L24.1987 14.9239L24.1983 14.9224L23.724 15.0808ZM24.1907 14.2167C24.0965 14.4441 23.9584 14.6507 23.7844 14.8248L24.1379 15.1784C24.3584 14.9579 24.5333 14.6961 24.6527 14.408L24.1907 14.2167ZM24.3334 13.4993C24.3334 13.7455 24.2849 13.9892 24.1907 14.2167L24.6527 14.408C24.772 14.1199 24.8334 13.8111 24.8334 13.4993H24.3334ZM24.1907 12.7819C24.2849 13.0094 24.3334 13.2531 24.3334 13.4993H24.8334C24.8334 13.1875 24.772 12.8787 24.6527 12.5906L24.1907 12.7819ZM23.7844 12.1738C23.9584 12.3478 24.0965 12.5545 24.1907 12.7819L24.6527 12.5906C24.5333 12.3025 24.3584 12.0407 24.1379 11.8202L23.7844 12.1738ZM21.9902 10.3797L23.7844 12.1738L24.1379 11.8202L22.3438 10.0261L21.9902 10.3797ZM21.7825 10.0686C21.8307 10.1849 21.9012 10.2906 21.9902 10.3796L22.3438 10.0262C22.3013 9.98361 22.2676 9.93308 22.2446 9.87747L21.7825 10.0686ZM21.7097 9.70186C21.7097 9.82771 21.7344 9.95234 21.7825 10.0686L22.2446 9.87747C22.2215 9.82186 22.2097 9.76226 22.2097 9.70208L21.7097 9.70186ZM21.7097 7.16428V9.70197H22.2097V7.16428H21.7097ZM21.16 5.83945C21.5115 6.19094 21.7092 6.66749 21.7097 7.16456L22.2097 7.16401C22.209 6.53452 21.9587 5.93101 21.5135 5.4859L21.16 5.83945ZM19.8348 5.28971C20.3319 5.29026 20.8085 5.48797 21.16 5.83945L21.5135 5.4859C21.0684 5.04078 20.4649 4.79041 19.8354 4.78971L19.8348 5.28971ZM17.2974 5.28971H19.8351V4.78971H17.2974V5.28971ZM16.9307 5.21692C17.047 5.26503 17.1717 5.28977 17.2975 5.28971L17.2973 4.78971C17.2371 4.78974 17.1775 4.77791 17.1219 4.7549L16.9307 5.21692ZM16.6197 5.00928C16.7088 5.09824 16.8144 5.1688 16.9307 5.21692L17.1219 4.7549C17.0663 4.73189 17.0157 4.69815 16.9732 4.65561L16.6197 5.00928ZM14.8256 3.21514L16.6197 5.00922L16.9732 4.65567L15.1791 2.86158L14.8256 3.21514ZM14.2174 2.80878C14.4448 2.90298 14.6515 3.04107 14.8256 3.21514L15.1791 2.86159C14.9586 2.64108 14.6968 2.46617 14.4087 2.34684L14.2174 2.80878ZM13.5 2.66608C13.7462 2.66608 13.9899 2.71457 14.2174 2.80878L14.4087 2.34684C14.1206 2.2275 13.8118 2.16608 13.5 2.16608V2.66608ZM12.7826 2.80878C13.01 2.71457 13.2538 2.66608 13.5 2.66608V2.16608C13.1882 2.16608 12.8794 2.2275 12.5913 2.34684L12.7826 2.80878ZM12.1744 3.21514C12.3485 3.04107 12.5552 2.90298 12.7826 2.80878L12.5913 2.34684C12.3032 2.46617 12.0414 2.64108 11.8209 2.86159L12.1744 3.21514ZM10.3803 5.00922L12.1744 3.21514L11.8209 2.86158L10.0268 4.65567L10.3803 5.00922ZM10.0693 5.21692C10.1856 5.1688 10.2912 5.09824 10.3803 5.00928L10.0268 4.65561C9.98426 4.69815 9.93372 4.73189 9.87811 4.7549L10.0693 5.21692ZM9.70249 5.28971C9.82835 5.28977 9.95298 5.26503 10.0693 5.21692L9.87811 4.7549C9.8225 4.77791 9.7629 4.78974 9.70272 4.78971L9.70249 5.28971ZM7.16487 5.28971H9.70261V4.78971H7.16487V5.28971ZM5.84001 5.83945C6.1915 5.48797 6.66807 5.29026 7.16515 5.28971L7.1646 4.78971C6.5351 4.79041 5.93158 5.04078 5.48646 5.4859L5.84001 5.83945ZM5.29026 7.16456C5.29081 6.66749 5.48852 6.19094 5.84001 5.83945L5.48646 5.4859C5.04134 5.93101 4.79096 6.53452 4.79026 7.16401L5.29026 7.16456ZM5.29026 9.70197V7.16428H4.79026V9.70197H5.29026ZM5.21746 10.0686C5.26558 9.95234 5.29032 9.82771 5.29026 9.70186L4.79026 9.70208C4.79029 9.76226 4.77846 9.82186 4.75545 9.87747L5.21746 10.0686ZM5.00982 10.3796C5.09879 10.2906 5.16934 10.1849 5.21746 10.0686L4.75545 9.87747C4.73244 9.93307 4.6987 9.98361 4.65616 10.0262L5.00982 10.3796ZM3.21565 12.1738L5.00977 10.3797L4.65622 10.0261L2.8621 11.8202L3.21565 12.1738ZM2.80928 12.7819C2.90349 12.5545 3.04157 12.3478 3.21565 12.1738L2.8621 11.8202C2.64159 12.0407 2.46668 12.3025 2.34734 12.5906L2.80928 12.7819ZM2.66658 13.4993C2.66658 13.2531 2.71507 13.0094 2.80928 12.7819L2.34734 12.5906C2.228 12.8787 2.16658 13.1875 2.16658 13.4993H2.66658ZM2.80928 14.2167C2.71507 13.9892 2.66658 13.7455 2.66658 13.4993H2.16658C2.16658 13.8111 2.228 14.1199 2.34734 14.408L2.80928 14.2167ZM3.21565 14.8248C3.04157 14.6507 2.90349 14.4441 2.80928 14.2167L2.34734 14.408C2.46668 14.6961 2.64159 14.9579 2.8621 15.1784L3.21565 14.8248ZM5.00977 16.6189L3.21565 14.8248L2.8621 15.1784L4.65622 16.9725L5.00977 16.6189ZM5.21746 16.9299C5.16934 16.8137 5.09879 16.708 5.00982 16.619L4.65616 16.9724C4.6987 17.015 4.73244 17.0655 4.75545 17.1211L5.21746 16.9299ZM5.29026 17.2967C5.29032 17.1709 5.26558 17.0462 5.21746 16.9299L4.75545 17.1211C4.77846 17.1767 4.79029 17.2363 4.79026 17.2965L5.29026 17.2967ZM5.29026 19.8357V17.2966H4.79026V19.8357H5.29026ZM5.84001 21.1605C5.48852 20.8091 5.29081 20.3325 5.29026 19.8354L4.79026 19.836C4.79096 20.4655 5.04134 21.069 5.48646 21.5141L5.84001 21.1605ZM7.16515 21.7103C6.66807 21.7097 6.1915 21.512 5.84001 21.1605L5.48646 21.5141C5.93158 21.9592 6.5351 22.2096 7.1646 22.2103L7.16515 21.7103ZM9.70261 21.7103H7.16487V22.2103H9.70261V21.7103ZM10.0693 21.7831C9.95298 21.735 9.82835 21.7102 9.70249 21.7103L9.70272 22.2103C9.7629 22.2103 9.8225 22.2221 9.87811 22.2451L10.0693 21.7831ZM10.3803 21.9907C10.2912 21.9018 10.1856 21.8312 10.0693 21.7831L9.87811 22.2451C9.93372 22.2681 9.98426 22.3018 10.0268 22.3444L10.3803 21.9907ZM12.1744 23.7849L10.3803 21.9908L10.0268 22.3443L11.8209 24.1384L12.1744 23.7849ZM12.7826 24.1912C12.5552 24.097 12.3485 23.9589 12.1744 23.7849L11.8209 24.1384C12.0414 24.3589 12.3032 24.5338 12.5913 24.6532L12.7826 24.1912ZM13.5 24.3339C13.2538 24.3339 13.01 24.2854 12.7826 24.1912L12.5913 24.6532C12.8794 24.7725 13.1882 24.8339 13.5 24.8339V24.3339ZM14.2174 24.1912C13.9899 24.2854 13.7462 24.3339 13.5 24.3339V24.8339C13.8118 24.8339 14.1206 24.7725 14.4087 24.6532L14.2174 24.1912ZM14.8256 23.7849C14.6515 23.9589 14.4448 24.097 14.2174 24.1912L14.4087 24.6532C14.6968 24.5338 14.9586 24.3589 15.1791 24.1384L14.8256 23.7849ZM16.6197 21.9908L14.8256 23.7849L15.1791 24.1384L16.9732 22.3443L16.6197 21.9908ZM16.9307 21.7831C16.8144 21.8312 16.7088 21.9018 16.6197 21.9907L16.9732 22.3444C17.0157 22.3018 17.0663 22.2681 17.1219 22.2451L16.9307 21.7831ZM17.2975 21.7103C17.1717 21.7102 17.047 21.735 16.9307 21.7831L17.1219 22.2451C17.1775 22.2221 17.2371 22.2103 17.2973 22.2103L17.2975 21.7103ZM19.8356 21.7103H17.2974V22.2103H19.8356V21.7103ZM21.1605 21.1605C20.809 21.512 20.3324 21.7097 19.8353 21.7103L19.8359 22.2103C20.4654 22.2096 21.0689 21.9592 21.514 21.5141L21.1605 21.1605ZM21.7102 19.8354C21.7097 20.3325 21.512 20.8091 21.1605 21.1605L21.514 21.5141C21.9591 21.069 22.2095 20.4655 22.2102 19.836L21.7102 19.8354ZM21.7102 17.298V19.8357H22.2102V17.298H21.7102ZM21.783 16.9314C21.7349 17.0477 21.7102 17.1723 21.7102 17.2981L22.2102 17.2979C22.2102 17.2377 22.222 17.1781 22.245 17.1225L21.783 16.9314ZM21.9907 16.6204C21.9017 16.7094 21.8311 16.8151 21.783 16.9314L22.245 17.1225C22.268 17.0669 22.3018 17.0164 22.3443 16.9738L21.9907 16.6204ZM17.6263 10.0209L10.0216 17.6255L10.3751 17.979L17.9798 10.3745L17.6263 10.0209ZM17.7518 9.70173C17.7529 9.82187 17.7067 9.93761 17.6232 10.024L17.9829 10.3714C18.1574 10.1907 18.254 9.94862 18.2518 9.69739L17.7518 9.70173ZM17.6176 9.38173C17.7026 9.46668 17.7508 9.5816 17.7518 9.70173L18.2518 9.69739C18.2496 9.44615 18.1489 9.20583 17.9712 9.02817L17.6176 9.38173ZM17.2976 9.24754C17.4178 9.24858 17.5327 9.29677 17.6176 9.38173L17.9712 9.02817C17.7935 8.85051 17.5532 8.74974 17.302 8.74756L17.2976 9.24754ZM16.9753 9.37614C17.0617 9.29268 17.1775 9.2465 17.2976 9.24754L17.302 8.74756C17.0507 8.74538 16.8087 8.84196 16.628 9.0165L16.9753 9.37614ZM9.37372 16.9777L16.9784 9.3731L16.6249 9.01954L9.02017 16.6241L9.37372 16.9777ZM9.24816 17.2969C9.24712 17.1767 9.2933 17.061 9.37677 16.9746L9.01713 16.6272C8.84258 16.8079 8.746 17.05 8.74818 17.3012L9.24816 17.2969ZM9.38235 17.6169C9.2974 17.5319 9.24921 17.417 9.24816 17.2969L8.74818 17.3012C8.75037 17.5524 8.85114 17.7928 9.0288 17.9704L9.38235 17.6169ZM9.70237 17.751C9.58223 17.75 9.46731 17.7018 9.38235 17.6169L9.0288 17.9704C9.20646 18.1481 9.44679 18.2488 9.69802 18.251L9.70237 17.751ZM10.0247 17.6224C9.93826 17.7059 9.82251 17.7521 9.70237 17.751L9.69802 18.251C9.94926 18.2532 10.1913 18.1566 10.372 17.9821L10.0247 17.6224ZM9.9219 11.4689C9.64568 11.3599 9.48752 11.2099 9.39243 11.0326C9.29343 10.8479 9.25 10.6095 9.25 10.3048H8.75C8.75 10.6492 8.79768 10.9814 8.95176 11.2688C9.10976 11.5635 9.36665 11.7873 9.73833 11.934L9.9219 11.4689ZM10.4943 9.25532C10.9822 9.30272 11.2768 9.51533 11.4373 9.77283C11.6024 10.0377 11.6427 10.378 11.5639 10.7003C11.485 11.0224 11.2928 11.3036 11.0228 11.4594C10.76 11.6111 10.3941 11.6612 9.92438 11.4699L9.73584 11.933C10.3291 12.1746 10.8591 12.1312 11.2727 11.8925C11.6791 11.658 11.9436 11.2519 12.0495 10.8191C12.1554 10.3865 12.1084 9.90427 11.8616 9.50835C11.6102 9.10501 11.1683 8.81845 10.5427 8.75766L10.4943 9.25532ZM9.25 10.2851C9.25 10.0219 9.3952 9.7477 9.63942 9.54192C9.88278 9.33686 10.1967 9.22407 10.4924 9.25512L10.5446 8.75786C10.0911 8.71023 9.64584 8.88267 9.31723 9.15956C8.98948 9.43573 8.75 9.84016 8.75 10.2851H9.25ZM9.25 10.3048V10.2851H8.75V10.3048H9.25ZM16.0895 15.3169C16.1507 15.3155 16.2312 15.3127 16.3769 15.2774L16.2589 14.7915C16.2058 14.8044 16.1698 14.8102 16.1445 14.8131C16.1195 14.816 16.1014 14.8165 16.0778 14.817L16.0895 15.3169ZM16.0836 15.317H16.0837V14.817H16.0836V15.317ZM16.0594 15.3181C16.0655 15.3175 16.0725 15.3173 16.0895 15.3169L16.0777 14.817C16.0633 14.8174 16.0413 14.8178 16.0179 14.8198L16.0594 15.3181ZM16.2873 14.7863L16.008 14.8208L16.0693 15.317L16.3486 15.2825L16.2873 14.7863ZM16.087 15.3142L16.1195 15.3078L16.0227 14.8172L15.9902 14.8236L16.087 15.3142ZM15.8495 15.4118C16.0274 15.3158 16.0542 15.3185 16.0594 15.3181L16.0179 14.8198C15.902 14.8294 15.7968 14.872 15.612 14.9718L15.8495 15.4118ZM15.5133 15.6719C15.6129 15.559 15.6899 15.4979 15.8495 15.4118L15.612 14.9718C15.4071 15.0824 15.2817 15.1787 15.1383 15.3412L15.5133 15.6719ZM16.5641 17.5609C16.0944 17.6317 15.6551 17.3775 15.4194 16.9798C15.1873 16.5882 15.1696 16.0855 15.5181 15.6664L15.1336 15.3467C14.6317 15.9505 14.6646 16.6871 14.9893 17.2348C15.3103 17.7764 15.9341 18.1615 16.6386 18.0553L16.5641 17.5609ZM16.5716 15.263C17.2573 15.3452 17.62 15.8618 17.6346 16.3888C17.6489 16.907 17.3249 17.4433 16.5632 17.561L16.6395 18.0552C17.6595 17.8975 18.1555 17.1355 18.1344 16.375C18.1136 15.6234 17.5854 14.881 16.6311 14.7665L16.5716 15.263ZM16.4833 15.2437C16.4964 15.2474 16.5173 15.2531 16.5537 15.2602L16.649 14.7693C16.6385 14.7673 16.6318 14.7658 16.6278 14.7648C16.624 14.7639 16.6217 14.7632 16.618 14.7622L16.4833 15.2437ZM16.5151 15.249C16.5012 15.2478 16.4906 15.2454 16.4854 15.2442C16.483 15.2436 16.4815 15.2432 16.4814 15.2432C16.4814 15.2432 16.4816 15.2432 16.4833 15.2437L16.618 14.7622C16.6167 14.7618 16.6094 14.7597 16.6018 14.7579C16.5927 14.7558 16.5787 14.7528 16.5614 14.7512L16.5151 15.249ZM16.5581 15.2491C16.5618 15.2485 16.5634 15.2482 16.5646 15.248C16.5658 15.2478 16.5643 15.248 16.5615 15.2484C16.5549 15.2492 16.5376 15.2511 16.5151 15.249L16.5614 14.7512C16.5337 14.7486 16.5111 14.7507 16.4973 14.7525C16.4864 14.7539 16.4748 14.7561 16.4707 14.7568L16.5581 15.2491ZM16.4738 15.2624C16.5171 15.2564 16.5427 15.2518 16.5581 15.2491L16.4707 14.7568C16.4588 14.7589 16.44 14.7623 16.405 14.7671L16.4738 15.2624ZM16.1198 15.3077C16.1944 15.2929 16.2536 15.2806 16.4596 15.2639L16.4192 14.7656C16.1933 14.7839 16.1151 14.7989 16.0223 14.8173L16.1198 15.3077Z" fill="#5F73F1"/>
</svg>
