<svg width="28" height="25" viewBox="0 0 28 25" fill="none" xmlns="http://www.w3.org/2000/svg">
<path d="M16.35 7.5C16.35 6.86773 16.8677 6.35 17.5 6.35C18.1323 6.35 18.65 6.86773 18.65 7.5V8.75C18.65 11.4573 16.4573 13.65 13.75 13.65C11.0427 13.65 8.85 11.4573 8.85 8.75V7.5C8.85 6.86773 9.36773 6.35 10 6.35C10.6323 6.35 11.15 6.86773 11.15 7.5V8.75C11.15 10.1802 12.3198 11.35 13.75 11.35C15.1802 11.35 16.35 10.1802 16.35 8.75V7.5Z" fill="#5F73F1" stroke="white" stroke-width="0.2"/>
<path d="M0.246624 19.2883L0.24663 19.2882L4.20903 4.41361C4.89726 1.86963 7.20776 0.1 9.8375 0.1H13.75H17.6625C20.2922 0.1 22.6027 1.86963 23.291 4.41361L27.2534 19.2882L27.2534 19.2883C27.351 19.6544 27.4 20.0457 27.4 20.4375C27.4 22.8948 25.3948 24.9 22.9375 24.9H13.75H4.5625C2.10523 24.9 0.1 22.8948 0.1 20.4375C0.1 20.0457 0.149001 19.6544 0.246624 19.2883ZM6.44088 5.01173L6.44088 5.01174L2.47885 19.8725C2.47877 19.8728 2.47868 19.8731 2.4786 19.8734C2.42622 20.057 2.4 20.241 2.4 20.4375C2.4 21.6302 3.36977 22.6 4.5625 22.6H13.75H22.9375C24.1302 22.6 25.1 21.6302 25.1 20.4375C25.1 20.241 25.0738 20.057 25.0214 19.8733C25.0213 19.8731 25.0212 19.8728 25.0212 19.8725L21.0591 5.01174C20.6475 3.46801 19.2579 2.4 17.6625 2.4H13.75H9.8375C8.24214 2.4 6.85254 3.46801 6.44088 5.01173Z" fill="#5F73F1" stroke="white" stroke-width="0.2"/>
</svg>
