<svg width="30" height="30" viewBox="0 0 30 30" fill="none" xmlns="http://www.w3.org/2000/svg">
<path d="M15.0046 5.78928C9.92258 5.78928 5.78817 9.92379 5.78817 15.006C5.78817 20.0882 9.92258 24.2227 15.0046 24.2227C20.0867 24.2227 24.2211 20.0882 24.2211 15.006C24.2211 9.92379 20.0867 5.78928 15.0046 5.78928ZM16.0731 4.26555C15.8037 4.53499 15.4227 4.71152 15.0046 4.71152C14.5866 4.71152 14.2056 4.54428 13.9362 4.26555C13.6668 3.99611 13.4902 3.61518 13.4902 3.19708V1.52469C13.4902 1.1066 13.6575 0.725664 13.9362 0.456224C14.2056 0.186784 14.5866 0.0102539 15.0046 0.0102539C15.4227 0.0102539 15.8037 0.177493 16.0731 0.456224C16.3425 0.725664 16.519 1.1066 16.519 1.52469V3.19708C16.519 3.61518 16.3518 3.99611 16.0731 4.26555ZM25.6055 6.54185L24.4255 7.72181C24.1282 8.01913 23.738 8.16778 23.3571 8.16778C22.9762 8.16778 22.5859 8.01913 22.2886 7.72181C21.9913 7.4245 21.8427 7.03428 21.8427 6.65334C21.8427 6.26312 21.9913 5.88219 22.2886 5.58488L23.4686 4.40491C23.7659 4.1076 24.1468 3.95894 24.537 3.95894C24.9272 3.95894 25.3081 4.1076 25.6055 4.40491C25.9028 4.70223 26.0514 5.09245 26.0514 5.47338C26.0514 5.86361 25.9028 6.24454 25.6055 6.54185ZM26.8133 13.4915H28.4856C28.9037 13.4915 29.2846 13.6588 29.554 13.9375C29.8235 14.207 30 14.5879 30 15.006C30 15.4241 29.8328 15.805 29.554 16.0745C29.2846 16.3439 28.9037 16.5204 28.4856 16.5204H26.8133C26.3952 16.5204 26.0142 16.3532 25.7448 16.0745C25.4754 15.805 25.2989 15.4241 25.2989 15.006C25.2989 14.5879 25.4661 14.207 25.7448 13.9375C26.0142 13.6681 26.3952 13.4915 26.8133 13.4915ZM23.3478 21.8349C23.738 21.8349 24.1189 21.9836 24.4162 22.2809L25.5962 23.4608C25.8935 23.7581 26.0421 24.1484 26.0421 24.5293C26.0421 24.9195 25.8935 25.3005 25.5962 25.5978C25.2989 25.8951 24.9086 26.0437 24.5277 26.0437C24.1375 26.0437 23.7566 25.8951 23.4593 25.5978L22.2793 24.4178C21.982 24.1205 21.8334 23.7303 21.8334 23.3493C21.8334 22.9591 21.982 22.5782 22.2793 22.2809C22.5767 21.9836 22.9669 21.8349 23.3478 21.8349ZM13.9269 25.7371C14.1963 25.4677 14.5773 25.2912 14.9954 25.2912C15.4134 25.2912 15.7944 25.4584 16.0638 25.7371C16.3332 26.0066 16.5098 26.3875 16.5098 26.8056V28.478C16.5098 28.8961 16.3425 29.277 16.0638 29.5465C15.7944 29.8159 15.4134 29.9924 14.9954 29.9924C14.5773 29.9924 14.1963 29.8252 13.9269 29.5465C13.6575 29.277 13.481 28.8961 13.481 28.478V26.8056C13.481 26.3875 13.6482 26.0066 13.9269 25.7371ZM4.39455 23.4608L5.57448 22.2809C5.87179 21.9836 6.262 21.8349 6.64292 21.8349C7.02385 21.8349 7.41406 21.9836 7.71137 22.2809C8.00867 22.5782 8.15733 22.9684 8.15733 23.3493C8.15733 23.7396 8.00867 24.1205 7.71137 24.4178L6.53143 25.5978C6.23413 25.8951 5.84392 26.0437 5.46299 26.0437C5.07278 26.0437 4.69186 25.8951 4.39455 25.5978C4.09724 25.3005 3.94859 24.9102 3.94859 24.5293C3.94859 24.1391 4.09724 23.7581 4.39455 23.4608ZM1.5144 13.4915H3.18675C3.60483 13.4915 3.98575 13.6588 4.25519 13.9375C4.52462 14.207 4.70115 14.5879 4.70115 15.006C4.70115 15.4241 4.53391 15.805 4.25519 16.0745C3.98575 16.3439 3.60483 16.5204 3.18675 16.5204H1.5144C1.09631 16.5204 0.715392 16.3532 0.445959 16.0745C0.176525 15.805 0 15.4241 0 15.006C0 14.5879 0.167234 14.207 0.445959 13.9375C0.715392 13.6681 1.09631 13.4915 1.5144 13.4915ZM6.65222 8.16778C6.262 8.16778 5.88108 8.01913 5.58377 7.72181L4.40384 6.54185C4.10653 6.24454 3.95788 5.85432 3.95788 5.47338C3.95788 5.08316 4.10653 4.70223 4.40384 4.40491C4.70115 4.1076 5.09136 3.95894 5.47228 3.95894C5.8625 3.95894 6.24342 4.1076 6.54073 4.40491L7.72066 5.58488C8.01796 5.88219 8.16662 6.27241 8.16662 6.65334C8.16662 7.04357 8.01796 7.4245 7.72066 7.72181C7.42335 8.01913 7.04243 8.16778 6.65222 8.16778ZM15.0046 21.7606C11.279 21.7606 8.24094 18.7317 8.24094 14.9967C8.24094 11.271 11.2697 8.23282 15.0046 8.23282C18.7303 8.23282 21.7684 11.2617 21.7684 14.9967C21.7684 18.7224 18.7395 21.7606 15.0046 21.7606Z" fill="#5F73F1"/>
</svg>
