<svg width="46" height="29" viewBox="0 0 46 29" fill="none" xmlns="http://www.w3.org/2000/svg">
<path d="M14.0286 28.0863C21.5715 28.0863 27.6863 21.9715 27.6863 14.4286C27.6863 6.88564 21.5715 0.770874 14.0286 0.770874C6.48564 0.770874 0.37088 6.88564 0.37088 14.4286C0.37088 21.9715 6.48564 28.0863 14.0286 28.0863Z" fill="white"/>
<path d="M32.2494 28.0763C24.7141 28.0763 18.5917 21.9539 18.5812 14.4291C18.5707 6.90422 24.7036 0.77133 32.2285 0.760864C39.7638 0.760864 45.8862 6.88329 45.8967 14.4081C45.9071 21.933 39.7847 28.0658 32.2494 28.0763ZM32.2389 5.31344C27.2154 5.31344 23.1338 9.40552 23.1338 14.4186C23.1338 19.4316 27.2258 23.5237 32.2389 23.5237C37.2624 23.5237 41.3441 19.4316 41.3441 14.4186C41.3441 9.38459 37.2624 5.30297 32.2389 5.31344Z" fill="white"/>
</svg>
