<svg width="29" height="38" viewBox="0 0 29 38" fill="none" xmlns="http://www.w3.org/2000/svg">
<path fill-rule="evenodd" clip-rule="evenodd" d="M2.15663 25.6118L2.15071 25.6198L2.14498 25.628C1.82567 26.0822 1.1104 26.2157 0.55105 25.8188C0.103288 25.5011 -0.0312987 24.793 0.350005 24.2335C0.918929 23.5048 1.33212 22.6529 1.60351 21.8202C1.88604 20.9532 2.01746 19.9681 2.01236 19.0019C2.00727 18.0357 1.86547 17.052 1.5738 16.1881C1.29364 15.3583 0.871493 14.5109 0.294916 13.7884C-0.0922688 13.233 0.0348416 12.5236 0.479227 12.201C1.03436 11.7981 1.75099 11.9239 2.07508 12.3747L2.0809 12.3828L2.08689 12.3907C2.80453 13.3416 3.39313 14.398 3.74486 15.4345C4.11509 16.6538 4.35092 17.8332 4.35702 18.9893C4.36343 20.2058 4.2477 21.3573 3.80337 22.4908C3.31946 23.7254 2.85085 24.6714 2.15663 25.6118ZM7.34544 27.8697L7.35947 27.8497L7.37234 27.829C8.96301 25.2684 9.88054 22.1785 9.86357 18.9596C9.84659 15.7416 8.89699 12.6625 7.28014 10.1195C6.92976 9.56116 7.08717 8.90103 7.6778 8.47233C8.07447 8.18442 8.81915 8.28634 9.26097 8.88128C11.0864 11.7915 12.189 15.3095 12.2082 18.947C12.2281 22.7088 11.1635 26.1127 9.36714 29.0442C8.9516 29.6189 8.31545 29.7799 7.7669 29.4542C7.1722 29.0164 7.06351 28.2708 7.34544 27.8697ZM16.6573 5.05586L16.673 5.08695L16.6912 5.11666C19.1647 9.1688 20.5393 13.8429 20.5659 18.9021C20.5926 23.959 19.2687 28.6456 16.8401 32.7228C16.4678 33.3243 15.8393 33.4939 15.202 33.1959C14.6221 32.8162 14.4663 32.1868 14.7692 31.5512C16.8346 27.8658 18.119 23.523 18.0947 18.9154C18.0705 14.3284 16.8768 9.99256 14.6317 6.30701C14.328 5.67771 14.4784 5.05095 15.0515 4.66682C15.7429 4.33493 16.4165 4.57816 16.6573 5.05586ZM23.9818 1.19926L23.9925 1.22051L24.0044 1.24112C27.0019 6.44736 28.7629 12.3997 28.797 18.8579C28.831 25.3094 27.1364 31.2747 24.1996 36.509C23.8266 37.1036 23.201 37.2701 22.5668 36.9736C21.9887 36.595 21.832 35.9684 22.1311 35.3348C24.9604 30.4832 26.4839 24.8625 26.4523 18.8705C26.4207 12.863 24.7038 7.26409 21.9611 2.46054C21.6175 1.75932 21.8597 1.07254 22.3394 0.828313C23.0435 0.46984 23.7367 0.713148 23.9818 1.19926Z" fill="white"/>
</svg>
