<svg width="33" height="25" viewBox="0 0 33 25" fill="none" xmlns="http://www.w3.org/2000/svg">
<path d="M27.6528 5.60657C24.7991 3.16578 21.1435 1.75205 17.6412 1.75205C14.3276 1.75205 11.2852 3.03287 8.98568 5.13533L7.51165 3.62494C7.5824 3.38328 7.60599 3.12953 7.60599 2.8637C7.60599 1.28081 6.35601 0 4.81123 0C3.52588 0 2.44099 0.894152 2.1226 2.10246C0.908001 2.41663 0 3.54036 0 4.88159C0 6.46448 1.24998 7.74529 2.79476 7.74529C3.04239 7.74529 3.29003 7.70904 3.53767 7.64862L5.67206 9.83567C4.98811 11.4669 4.59897 13.2552 4.59897 15.1402C4.59897 18.7047 5.95508 21.3509 8.62012 23.0063C10.7899 24.3475 13.7379 25 17.6412 25C20.3888 25 24.3156 24.6617 27.4405 23.0425C30.6834 21.363 32.3932 18.6322 32.3932 15.1402C32.3932 11.624 30.707 8.2407 27.641 5.61866L27.6528 5.60657ZM8.66729 8.44611C8.98568 8.19236 9.5517 8.04737 10.271 8.04737C12.8417 8.04737 16.3087 9.71484 17.3464 11.0923C18.7143 12.8927 18.4077 15.5027 16.6506 16.9043C15.9313 17.4843 15.0705 17.7864 14.1625 17.7864C12.9125 17.7864 11.7451 17.2064 10.9668 16.1914C10.2357 15.2247 9.17435 13.4727 8.58474 11.6844C8.3371 10.9232 7.85362 9.08651 8.65549 8.44611H8.66729ZM3.78531 5.20783C3.57304 5.20783 3.34899 5.26825 3.16032 5.41324C3.08956 5.46158 2.95985 5.53407 2.80655 5.53407C2.46458 5.53407 2.18156 5.24408 2.18156 4.89367C2.18156 4.54326 2.46458 4.25326 2.80655 4.25326C2.85372 4.25326 2.8891 4.25326 2.93626 4.26535C3.29003 4.33784 3.6438 4.2291 3.90323 3.97535C4.16266 3.7216 4.28058 3.34703 4.20983 2.99662C4.19803 2.94828 4.19803 2.91203 4.19803 2.88787C4.19803 2.53746 4.48105 2.24746 4.82302 2.24746C5.165 2.24746 5.44801 2.53746 5.44801 2.88787C5.44801 3.05703 5.38905 3.17786 5.34188 3.25036C5.03528 3.69744 5.09424 4.28951 5.4598 4.67617L7.40552 6.66989C7.38193 6.68197 7.35835 6.70614 7.33477 6.71822C7.05175 6.93572 6.78053 7.2378 6.55648 7.62446L4.54001 5.55824C4.32775 5.34074 4.05653 5.232 3.77351 5.232L3.78531 5.20783ZM26.4736 21.0488C23.726 22.4746 20.1647 22.7646 17.653 22.7646C14.2096 22.7646 11.5564 22.1967 9.75217 21.0851C7.74749 19.8405 6.76874 17.883 6.76874 15.116C6.76874 14.5239 6.81591 13.9319 6.89845 13.3639C7.5824 15.0556 8.56116 16.6264 9.2569 17.5447C10.4479 19.1034 12.2285 19.9855 14.1507 19.9855C15.5422 19.9855 16.8629 19.5143 17.9714 18.6322C20.6718 16.4693 21.1435 12.4698 19.0444 9.70275C17.7001 7.93862 14.3629 6.30739 11.5092 5.90865C13.2545 4.68826 15.3653 3.96327 17.6412 3.96327C23.4665 3.96327 30.2235 8.83277 30.2235 15.116C30.2235 17.7864 28.9971 19.7318 26.4618 21.0367L26.4736 21.0488Z" fill="#5F73F1"/>
</svg>
