<svg width="32" height="25" viewBox="0 0 32 25" fill="none" xmlns="http://www.w3.org/2000/svg">
<path d="M31.25 11.0899C31.25 9.1059 30.2135 7.26424 28.5623 6.23375C28.0369 3.59399 25.7581 1.67536 23.0229 1.67536C22.3096 1.67536 21.6093 1.81043 20.9535 2.07114C19.8919 0.772683 18.304 0 16.5945 0C15.44 0 14.3301 0.351484 13.393 1.00362C12.6322 0.631799 11.7965 0.437902 10.9378 0.437902C8.944 0.437902 7.10424 1.50615 6.0915 3.20765C2.57753 3.9324 0 7.06961 0 10.7471C0 14.9925 3.42256 18.4464 7.6304 18.4464C8.42431 18.4464 9.19592 18.3265 9.93657 18.0883C10.9853 19.5705 12.6948 20.4826 14.5396 20.4826C14.9081 20.4826 15.2723 20.4471 15.6293 20.3766L19.9602 24.6663C20.1762 24.8805 20.467 24.9996 20.7686 24.9996H23.8478C24.4438 24.9996 24.9411 24.5429 24.9973 23.9445L25.3953 19.6954C28.3543 19.5168 30.708 17.031 30.708 14.002C30.708 13.8546 30.7022 13.7071 30.6907 13.559C31.0571 12.7914 31.2493 11.9454 31.2493 11.0892L31.25 11.0899ZM28.5026 12.7573C28.3745 12.9838 28.3255 13.2474 28.363 13.5045C28.3874 13.6701 28.3997 13.8371 28.3997 14.002C28.3997 15.8618 26.8989 17.3752 25.0556 17.3752C24.8792 17.3752 24.7029 17.3614 24.5308 17.3338C24.2156 17.2837 23.8938 17.3672 23.6419 17.564C23.39 17.7608 23.2309 18.0549 23.2007 18.3752L22.7983 22.67H21.2422L16.781 18.2517C16.4715 17.9453 16.0166 17.8392 15.6056 17.9787C15.2637 18.0941 14.9052 18.153 14.5403 18.153C13.2267 18.153 12.029 17.3701 11.4899 16.1603C11.3625 15.8727 11.1257 15.6512 10.8327 15.543C10.5405 15.4355 10.2173 15.4515 9.93657 15.588C9.21463 15.9388 8.43943 16.1167 7.63111 16.1167C4.69729 16.1167 2.3105 13.7079 2.3105 10.7478C2.3105 8.03619 4.3194 5.74647 6.98331 5.4204C7.38279 5.37174 7.72901 5.11612 7.89527 4.74648C8.43799 3.54461 9.6321 2.76757 10.9392 2.76757C11.6237 2.76757 12.2823 2.97599 12.8423 3.36814C13.2915 3.68404 13.899 3.63684 14.2963 3.25631C14.9203 2.65864 15.7373 2.32894 16.596 2.32894C17.8347 2.32894 18.9669 3.01593 19.55 4.12194C19.7026 4.41025 19.9674 4.62157 20.282 4.70291C20.5958 4.78424 20.9283 4.72978 21.2004 4.55113C21.7439 4.19311 22.3744 4.0043 23.0243 4.0043C24.7417 4.0043 26.2043 5.35432 26.3541 7.07905C26.39 7.49299 26.6412 7.85609 27.0141 8.03184C28.1852 8.58521 28.9417 9.78562 28.9417 11.0892C28.9417 11.673 28.7898 12.2504 28.5033 12.7565L28.5026 12.7573Z" fill="#5F73F1"/>
</svg>
