<svg width="32" height="25" viewBox="0 0 32 25" fill="none" xmlns="http://www.w3.org/2000/svg">
<path d="M4.19183 18.9378L4.19277 18.9391C5.54677 20.8925 8.04688 22.287 10.5109 22.287H20.7974V22.3067H20.8974C22.6813 22.3067 24.7082 21.5321 25.9424 20.4145C25.9962 20.3728 26.0458 20.3372 26.0937 20.3028C26.2139 20.2165 26.3228 20.1383 26.4576 19.9927L26.4578 19.9928L26.4618 19.988L27.3121 18.9454L27.3124 18.9456L27.3173 18.9384C29.5105 15.7121 28.9597 11.5067 26.3517 9.11143C26.2772 9.0391 26.2274 9.0013 26.1802 8.96888C26.1691 8.96131 26.1587 8.95436 26.1486 8.94755C26.1159 8.92571 26.0855 8.90532 26.0423 8.87035L26.0423 8.87034L26.0407 8.86912C25.944 8.79393 25.9067 8.75773 25.8061 8.65996L25.8062 8.65987L25.8022 8.65641C24.5666 7.57594 22.4972 6.88092 20.7557 6.88092H10.6526C8.0899 6.88092 5.58974 8.21411 4.19398 10.227C3.90539 10.6079 3.69988 10.9879 3.4766 11.4415L3.47644 11.4419C2.55155 13.3389 2.57253 15.8299 3.47605 17.7252L3.47601 17.7253L3.47741 17.728C3.70198 18.1644 3.92666 18.5414 4.19183 18.9378ZM14.3768 1.63028V1.53028H14.3385C14.3593 1.05451 14.5289 0.705793 14.768 0.472725C15.0246 0.222539 15.3681 0.0988572 15.714 0.100008C16.06 0.101159 16.4043 0.227284 16.6615 0.471759C16.9174 0.714978 17.0923 1.08032 17.0923 1.57127V4.1679V4.2679H17.1923C17.6652 4.2679 18.1225 4.26152 18.5672 4.25531C21.0286 4.22093 23.1069 4.19191 25.3481 5.28058C26.5735 5.88564 27.4358 6.50915 28.3603 7.38782L28.3603 7.38784C30.1623 9.09973 31.3662 11.9257 31.3662 14.4561C31.3662 18.6056 29.0819 22.0734 25.308 23.9068C24.3459 24.3742 22.6197 24.9 21.2214 24.9H10.2477C8.80894 24.9 7.10321 24.3742 6.12132 23.8875L6.1206 23.8871C3.7908 22.7553 2.04755 21.0602 1.02559 18.7824C-0.257715 15.899 -0.158682 13.2524 1.02665 10.383C1.40585 9.47174 2.3492 8.10643 3.10863 7.38798L3.10864 7.38799L3.1096 7.38706C4.03344 6.48946 4.87506 5.88585 6.1206 5.28077C8.36318 4.19133 10.4716 4.22096 12.9192 4.25536C13.3598 4.26156 13.8114 4.2679 14.2768 4.2679H14.3768V4.1679V1.63028Z" fill="#5F73F1" stroke="white" stroke-width="0.2"/>
<path d="M8.58768 13.2381H8.68768V13.1381V11.7808C8.68768 11.199 9.05079 10.7796 9.51974 10.5978C9.99064 10.4153 10.5556 10.4775 10.9485 10.8501L10.9488 10.8504C11.2425 11.1265 11.3448 11.3927 11.3758 11.7381C11.3916 11.9145 11.3887 12.1113 11.3814 12.3429C11.38 12.3879 11.3784 12.4343 11.3768 12.482C11.3701 12.6776 11.3627 12.8952 11.3627 13.1381V13.2381H11.4627C11.5515 13.2381 11.6486 13.2363 11.7519 13.2345C12.1914 13.2266 12.741 13.2167 13.2186 13.3312C13.5112 13.4014 13.7653 13.5162 13.9456 13.6981C14.1233 13.8774 14.2377 14.1301 14.2377 14.4954C14.2377 14.9047 14.1292 15.1875 13.9604 15.3863C13.7904 15.5863 13.5503 15.7116 13.2688 15.7882C12.8102 15.913 12.2697 15.9032 11.7953 15.8946C11.6798 15.8925 11.5682 15.8904 11.4627 15.8904H11.3627V15.9904V17.4265C11.3627 17.8232 11.1974 18.1195 10.9507 18.3187C10.7015 18.5198 10.3653 18.6248 10.0252 18.6248C9.68512 18.6248 9.34961 18.5199 9.10099 18.3124C8.85475 18.1068 8.68768 17.7959 8.68768 17.3675V16.0101V15.9101H8.58768C8.44545 15.9101 8.3029 15.9133 8.1611 15.9164C7.86936 15.9228 7.58079 15.9292 7.30464 15.908C6.89732 15.8766 6.54386 15.7858 6.28464 15.5611C5.68143 15.0297 5.68358 14.0981 6.2836 13.588L6.2836 13.588L6.28436 13.5874C6.54361 13.3625 6.89718 13.2716 7.30464 13.2402C7.58079 13.219 7.86936 13.2254 8.16111 13.2318C8.30291 13.2349 8.44545 13.2381 8.58768 13.2381Z" fill="#5F73F1" stroke="white" stroke-width="0.2"/>
<path d="M20.8947 17.8257L20.8937 17.8253C20.5888 17.7049 20.401 17.5328 20.2871 17.3202C20.1716 17.1047 20.1269 16.8382 20.1269 16.5216V16.5019C20.1269 16.1842 20.3003 15.8709 20.5696 15.644C20.8386 15.4174 21.1919 15.2867 21.5349 15.3227L21.5357 15.3228C22.0649 15.3742 22.4037 15.609 22.5915 15.9103C22.7811 16.2145 22.8234 16.5974 22.7364 16.9527C22.6494 17.3081 22.4355 17.6267 22.1246 17.8062C21.8166 17.9839 21.4014 18.032 20.8947 17.8257Z" fill="#5F73F1" stroke="white" stroke-width="0.2"/>
<path d="M24.2206 11.2176C24.2262 11.2152 24.2402 11.2092 24.2539 11.1967C24.2679 11.1953 24.2853 11.1938 24.3068 11.1921L24.3068 11.1922L24.3125 11.1914C24.3494 11.1863 24.3722 11.1824 24.387 11.1798L24.3911 11.1791C24.402 11.182 24.4176 11.1859 24.4417 11.1906L24.4416 11.1908L24.4488 11.1917C25.2151 11.2836 25.6274 11.8679 25.6439 12.4623C25.6603 13.0531 25.2847 13.6571 24.4456 13.7869C23.9055 13.8682 23.411 13.5748 23.1497 13.134C22.8901 12.6959 22.8676 12.1235 23.2612 11.6492C23.3735 11.5221 23.465 11.4506 23.6376 11.3574C23.7996 11.27 23.8566 11.2524 23.8944 11.2475L23.8466 11.2939L24.1761 11.2299C24.1898 11.2272 24.2061 11.2236 24.2206 11.2176Z" fill="#5F73F1" stroke="white" stroke-width="0.2"/>
</svg>
