<svg width="27" height="27" viewBox="0 0 27 27" fill="none" xmlns="http://www.w3.org/2000/svg">
<path d="M13.5 8.5C12.5111 8.5 11.5444 8.79325 10.7222 9.34265C9.89991 9.89206 9.25904 10.673 8.88061 11.5866C8.50217 12.5002 8.40315 13.5056 8.59608 14.4755C8.789 15.4454 9.26521 16.3363 9.96447 17.0356C10.6637 17.7348 11.5547 18.211 12.5246 18.4039C13.4945 18.5969 14.4998 18.4979 15.4134 18.1194C16.3271 17.741 17.108 17.1001 17.6574 16.2779C18.2068 15.4556 18.5 14.4889 18.5 13.5C18.4986 12.1744 17.9714 10.9034 17.034 9.96603C16.0966 9.02865 14.8257 8.50141 13.5 8.5ZM13.5 17.25C12.7583 17.25 12.0333 17.0301 11.4166 16.618C10.7999 16.206 10.3193 15.6203 10.0355 14.9351C9.75163 14.2499 9.67737 13.4959 9.82206 12.7684C9.96676 12.041 10.3239 11.3728 10.8484 10.8484C11.3728 10.3239 12.041 9.96675 12.7684 9.82206C13.4959 9.67736 14.2499 9.75163 14.9351 10.0355C15.6203 10.3193 16.206 10.7999 16.618 11.4166C17.0301 12.0333 17.25 12.7583 17.25 13.5C17.2489 14.4942 16.8535 15.4474 16.1505 16.1505C15.4474 16.8535 14.4942 17.2489 13.5 17.25Z" fill="#5F73F1" stroke="#5F73F1" stroke-width="0.7"/>
<path d="M23.9664 10.6179C23.7278 10.5332 23.5098 10.3993 23.3262 10.225C23.1427 10.0506 22.9978 9.83972 22.9009 9.60586C22.804 9.372 22.7573 9.12041 22.7638 8.86735C22.7703 8.6143 22.8298 8.36543 22.9385 8.13683C23.2098 7.5664 23.2978 6.92598 23.1904 6.30353C23.083 5.68109 22.7856 5.10715 22.3389 4.66055C21.8923 4.21395 21.3183 3.91659 20.6958 3.80933C20.0733 3.70207 19.4329 3.79017 18.8626 4.06151C18.634 4.17024 18.3852 4.22978 18.1322 4.23626C17.8791 4.24274 17.6276 4.19603 17.3938 4.09914C17.1599 4.00225 16.9491 3.85735 16.7748 3.67381C16.6005 3.49027 16.4667 3.27218 16.3821 3.03366C16.1702 2.43856 15.7794 1.92361 15.2632 1.55949C14.747 1.19537 14.1308 0.999932 13.4991 1C12.8675 1.00007 12.2513 1.19564 11.7352 1.55987C11.2191 1.9241 10.8284 2.43914 10.6167 3.03429C10.5321 3.27271 10.3984 3.49072 10.2242 3.67419C10.0501 3.85766 9.83929 4.0025 9.60558 4.09934C9.37187 4.19618 9.12043 4.24285 8.86753 4.23633C8.61464 4.22981 8.36594 4.17025 8.13752 4.06151C7.56707 3.79015 6.92659 3.70208 6.30407 3.80938C5.68154 3.91669 5.10751 4.21411 4.66083 4.66079C4.21414 5.10747 3.91672 5.68151 3.80942 6.30403C3.70211 6.92656 3.79019 7.56704 4.06155 8.13749C4.17016 8.36598 4.22964 8.61472 4.23613 8.86763C4.24262 9.12055 4.19598 9.37201 4.09923 9.60577C4.00248 9.83954 3.85776 10.0504 3.67444 10.2248C3.49111 10.3991 3.27324 10.5331 3.03492 10.618C2.4397 10.8294 1.92454 11.2199 1.56018 11.7359C1.19582 12.2519 1.00013 12.868 1 13.4996C0.999867 14.1313 1.19529 14.7475 1.55943 15.2636C1.92357 15.7797 2.43857 16.1705 3.0337 16.3822C3.27223 16.4669 3.49032 16.6008 3.67386 16.7751C3.8574 16.9494 4.00229 17.1603 4.09918 17.3942C4.19606 17.6281 4.24277 17.8797 4.23629 18.1327C4.22981 18.3858 4.17028 18.6346 4.06155 18.8632C3.79031 19.4337 3.70234 20.0741 3.80971 20.6965C3.91708 21.3189 4.21453 21.8929 4.6612 22.3395C5.10786 22.786 5.68184 23.0834 6.3043 23.1906C6.92675 23.2979 7.56715 23.2098 8.13752 22.9385C8.36608 22.8298 8.61491 22.7702 8.86792 22.7637C9.12094 22.7573 9.37249 22.804 9.60631 22.9009C9.84013 22.9977 10.051 23.1427 10.2253 23.3262C10.3995 23.5097 10.5333 23.7278 10.618 23.9663C10.8298 24.5614 11.2207 25.0764 11.7368 25.4405C12.253 25.8046 12.8692 26.0001 13.5009 26C14.1326 25.9999 14.7488 25.8044 15.2649 25.4401C15.781 25.0759 16.1717 24.5609 16.3834 23.9657C16.468 23.7273 16.6017 23.5093 16.7759 23.3258C16.95 23.1423 17.1608 22.9975 17.3945 22.9007C17.6282 22.8038 17.8796 22.7572 18.1325 22.7637C18.3854 22.7702 18.6341 22.8297 18.8626 22.9385C19.433 23.2099 20.0735 23.2979 20.696 23.1906C21.3185 23.0833 21.8926 22.7859 22.3392 22.3392C22.7859 21.8925 23.0834 21.3185 23.1907 20.696C23.298 20.0734 23.2099 19.433 22.9385 18.8625C22.8299 18.634 22.7704 18.3853 22.7639 18.1324C22.7575 17.8795 22.8041 17.628 22.9008 17.3942C22.9976 17.1605 23.1423 16.9496 23.3256 16.7752C23.509 16.6009 23.7268 16.4669 23.9652 16.382C24.5604 16.1706 25.0755 15.7801 25.4399 15.2641C25.8043 14.7481 25.9999 14.132 26.0001 13.5004C26.0002 12.8687 25.8048 12.2525 25.4406 11.7364C25.0765 11.2203 24.5615 10.8295 23.9664 10.6178V10.6179ZM23.5464 15.2041C23.1433 15.3476 22.7748 15.5741 22.4647 15.869C22.1546 16.1638 21.9099 16.5205 21.7463 16.9158C21.5827 17.3112 21.5039 17.7365 21.5149 18.1643C21.526 18.592 21.6268 19.0127 21.8106 19.3991C21.9708 19.7365 22.0226 20.1152 21.959 20.4832C21.8954 20.8512 21.7195 21.1906 21.4553 21.4546C21.1912 21.7187 20.8518 21.8945 20.4838 21.9581C20.1157 22.0216 19.7371 21.9696 19.3997 21.8094C19.0132 21.6255 18.5925 21.5249 18.1646 21.5139C17.7368 21.503 17.3114 21.582 16.916 21.7458C16.5206 21.9097 16.1641 22.1547 15.8694 22.4651C15.5747 22.7755 15.3485 23.1443 15.2054 23.5476C15.08 23.8994 14.8489 24.2038 14.5438 24.4191C14.2386 24.6343 13.8743 24.7499 13.5009 24.75C13.1274 24.75 12.7631 24.6346 12.4579 24.4194C12.1526 24.2043 11.9214 23.9 11.796 23.5482C11.6524 23.1451 11.4259 22.7765 11.1311 22.4662C10.8363 22.156 10.4796 21.9111 10.0843 21.7472C9.6889 21.5833 9.26357 21.5042 8.83573 21.5149C8.40788 21.5256 7.98704 21.626 7.60037 21.8094C7.26308 21.9697 6.88444 22.0217 6.51642 21.9583C6.1484 21.8948 5.80904 21.719 5.5449 21.455C5.28077 21.191 5.10481 20.8517 5.04117 20.4838C4.97754 20.1158 5.02935 19.7371 5.18949 19.3997C5.37345 19.0133 5.47422 18.5925 5.48529 18.1646C5.49636 17.7367 5.41747 17.3112 5.25374 16.9158C5.09 16.5203 4.84506 16.1636 4.53477 15.8687C4.22447 15.5739 3.85574 15.3475 3.45242 15.2042C3.10061 15.079 2.79616 14.848 2.58087 14.5429C2.36558 14.2378 2.25 13.8735 2.25 13.5001C2.25 13.1266 2.36558 12.7624 2.58087 12.4573C2.79616 12.1521 3.10061 11.9211 3.45242 11.796H3.45364C3.85676 11.6525 4.22528 11.426 4.53537 11.1311C4.84546 10.8362 5.09022 10.4796 5.25382 10.0842C5.41743 9.68881 5.49624 9.26349 5.48515 8.83574C5.47407 8.40798 5.37335 7.98731 5.18949 7.60092C5.02932 7.26353 4.97749 6.88484 5.04109 6.51681C5.1047 6.14879 5.28064 5.80946 5.54476 5.5454C5.80889 5.28134 6.14825 5.10548 6.51629 5.04196C6.88433 4.97844 7.26301 5.03036 7.60037 5.19061C7.98685 5.37446 8.40762 5.47512 8.83546 5.48607C9.26331 5.49701 9.68868 5.418 10.0841 5.25415C10.4794 5.0903 10.836 4.84526 11.1307 4.53489C11.4254 4.22451 11.6516 3.85572 11.7947 3.45238C11.9201 3.1006 12.1512 2.79621 12.4563 2.58095C12.7615 2.36569 13.1257 2.2501 13.4992 2.25003C13.8726 2.24996 14.237 2.36542 14.5422 2.58057C14.8474 2.79572 15.0786 3.10003 15.2041 3.45176C15.3473 3.85518 15.5737 4.22404 15.8684 4.53447C16.1632 4.84491 16.5199 5.09 16.9153 5.25391C17.3108 5.41781 17.7363 5.49686 18.1642 5.48596C18.5922 5.47506 19.0131 5.37444 19.3997 5.19061C19.737 5.0303 20.1156 4.97831 20.4836 5.04176C20.8517 5.10521 21.191 5.281 21.4552 5.545C21.7193 5.809 21.8953 6.14827 21.9589 6.51625C22.0225 6.88423 21.9707 7.2629 21.8106 7.60027C21.6267 7.98675 21.5259 8.40755 21.5148 8.83543C21.5037 9.26332 21.5826 9.68877 21.7463 10.0842C21.9101 10.4797 22.155 10.8364 22.4653 11.1313C22.7756 11.4261 23.1443 11.6525 23.5477 11.7958C23.8996 11.921 24.2041 12.1521 24.4194 12.4573C24.6347 12.7625 24.7502 13.1269 24.7501 13.5004C24.75 13.8739 24.6342 14.2382 24.4186 14.5432C24.2031 14.8483 23.8984 15.0791 23.5464 15.204V15.2041Z" fill="#5F73F1" stroke="#5F73F1" stroke-width="0.7"/>
</svg>
