<svg width="25" height="27" viewBox="0 0 25 27" fill="none" xmlns="http://www.w3.org/2000/svg">
<path d="M19.2712 9.08824V8.35294C19.2712 6.72857 20.58 5.41176 22.1946 5.41176H23.6562C24.0599 5.41176 24.3871 5.74097 24.3871 6.14706C24.3871 6.55315 24.0599 6.88235 23.6562 6.88235H22.1946C21.3873 6.88235 20.7329 7.54076 20.7329 8.35294V9.82353C20.7329 14.6966 16.8063 18.6471 11.9627 18.6471H9.77016C4.92653 18.6471 1 14.6966 1 9.82353C1 4.95043 4.92653 1 9.77016 1H11.2319C11.6355 1 11.9627 1.3292 11.9627 1.73529V8.35294C11.9627 8.75903 12.2899 9.08824 12.6935 9.08824H19.2712ZM10.501 2.47059H9.77016C5.73381 2.47059 2.46169 5.76261 2.46169 9.82353C2.46169 13.8844 5.73381 17.1765 9.77016 17.1765H11.9627C15.7524 17.1765 18.8684 14.2745 19.2351 10.5588H12.6935C11.4826 10.5588 10.501 9.57122 10.501 8.35294V2.47059ZM6.11593 26C4.50139 26 3.19254 24.6832 3.19254 23.0588C3.19254 21.4345 4.50139 20.1176 6.11593 20.1176C7.73047 20.1176 9.03931 21.4345 9.03931 23.0588C9.03931 24.6832 7.73047 26 6.11593 26ZM6.11593 24.5294C6.9232 24.5294 7.57762 23.871 7.57762 23.0588C7.57762 22.2466 6.9232 21.5882 6.11593 21.5882C5.30866 21.5882 4.65423 22.2466 4.65423 23.0588C4.65423 23.871 5.30866 24.5294 6.11593 24.5294ZM14.8861 26C13.2715 26 11.9627 24.6832 11.9627 23.0588C11.9627 21.4345 13.2715 20.1176 14.8861 20.1176C16.5006 20.1176 17.8095 21.4345 17.8095 23.0588C17.8095 24.6832 16.5006 26 14.8861 26ZM14.8861 24.5294C15.6934 24.5294 16.3478 23.871 16.3478 23.0588C16.3478 22.2466 15.6934 21.5882 14.8861 21.5882C14.0788 21.5882 13.4244 22.2466 13.4244 23.0588C13.4244 23.871 14.0788 24.5294 14.8861 24.5294Z" fill="#5F73F1" stroke="#5F73F1" stroke-width="0.5"/>
</svg>
