<svg width="9" height="8" viewBox="0 0 9 8" fill="none" xmlns="http://www.w3.org/2000/svg">
<path d="M0.0542927 3.73983C0.15893 3.50294 0.461691 2.88601 1.0117 2.27492C1.42368 1.81716 1.89182 1.45211 2.40313 1.18987C3.04164 0.862441 3.74714 0.696411 4.49999 0.696411C5.24859 0.696411 5.95044 0.860577 6.58604 1.18435C7.09599 1.44411 7.56332 1.80609 7.97507 2.26024C8.53015 2.87256 8.8385 3.49867 8.9453 3.73945C9.0181 3.90357 9.01823 4.09593 8.94569 4.26017C8.84105 4.49706 8.53829 5.11399 7.98828 5.72511C7.57632 6.18284 7.10816 6.54791 6.59685 6.81015C5.95834 7.13758 5.25284 7.30361 4.49999 7.30361C3.75139 7.30361 3.04954 7.13945 2.41394 6.81567C1.90399 6.55591 1.43666 6.19393 1.02491 5.73978C0.469825 5.12746 0.161479 4.50136 0.0546751 4.26057C-0.0181055 4.09643 -0.0182543 3.90409 0.0542927 3.73983ZM4.49999 6.5957C5.79021 6.5957 6.83611 5.43359 6.83611 4.00001C6.83611 2.56644 5.79021 1.40433 4.49999 1.40433C3.20977 1.40433 2.16387 2.56646 2.16387 4.00001C2.16387 5.43356 3.20977 6.5957 4.49999 6.5957Z" fill="#D9DADA"/>
<path d="M4.50023 5.88773C3.5619 5.88773 2.80123 5.04255 2.80123 3.99996C2.80123 2.95737 3.5619 2.11218 4.50023 2.11218C5.43855 2.11218 6.19922 2.95737 6.19922 3.99996C6.19922 5.04255 5.43855 5.88773 4.50023 5.88773Z" fill="#D9DADA"/>
</svg>
