<svg width="12" height="16" viewBox="0 0 12 16" fill="none" xmlns="http://www.w3.org/2000/svg">
<path fill-rule="evenodd" clip-rule="evenodd" d="M2.34375 1.8125C2.18842 1.8125 2.0625 1.93842 2.0625 2.09375V13.2434L5.46362 10.4425C5.77518 10.1859 6.22482 10.1859 6.53638 10.4425L9.9375 13.2434V2.09375C9.9375 1.93842 9.81161 1.8125 9.65625 1.8125H2.34375ZM0.375 2.09375C0.375 1.00644 1.25644 0.125 2.34375 0.125H9.65625C10.7436 0.125 11.625 1.00644 11.625 2.09375V15.0312C11.625 15.3577 11.4367 15.655 11.1414 15.7943C10.8461 15.9336 10.497 15.8901 10.2449 15.6825L6 12.1868L1.75513 15.6825C1.50309 15.8901 1.15393 15.9336 0.858649 15.7943C0.56337 15.655 0.375 15.3577 0.375 15.0312V2.09375Z" fill="#5F73F1"/>
</svg>
