<svg width="10" height="10" viewBox="0 0 10 10" fill="none" xmlns="http://www.w3.org/2000/svg">
<path fill-rule="evenodd" clip-rule="evenodd" d="M0.9375 5C0.9375 3.92256 1.36551 2.88924 2.12738 2.12738C2.88924 1.36551 3.92256 0.9375 5 0.9375C6.07744 0.9375 7.11075 1.36551 7.87262 2.12738C8.6345 2.88924 9.0625 3.92256 9.0625 5C9.0625 6.07744 8.6345 7.11075 7.87262 7.87262C7.11075 8.6345 6.07744 9.0625 5 9.0625C3.92256 9.0625 2.88924 8.6345 2.12738 7.87262C1.36551 7.11075 0.9375 6.07744 0.9375 5ZM5 0C3.67392 0 2.40215 0.526784 1.46447 1.46447C0.526784 2.40215 0 3.67392 0 5C0 6.32606 0.526784 7.59788 1.46447 8.53556C2.40215 9.47319 3.67392 10 5 10C6.32606 10 7.59788 9.47319 8.53556 8.53556C9.47319 7.59788 10 6.32606 10 5C10 3.67392 9.47319 2.40215 8.53556 1.46447C7.59788 0.526784 6.32606 0 5 0ZM5.3125 2.96875C5.3125 2.84443 5.26311 2.7252 5.17521 2.63729C5.0873 2.54939 4.96807 2.5 4.84375 2.5C4.71943 2.5 4.6002 2.54939 4.51229 2.63729C4.42439 2.7252 4.375 2.84443 4.375 2.96875V5.15625C4.37502 5.24986 4.40308 5.34132 4.45554 5.41886C4.50801 5.49638 4.58248 5.55643 4.66937 5.59125L6.23187 6.21625C6.34631 6.25806 6.47256 6.25362 6.58381 6.20396C6.69506 6.15427 6.78262 6.06322 6.82787 5.95009C6.87312 5.83696 6.87256 5.71066 6.82631 5.59793C6.78006 5.48521 6.69169 5.39494 6.58 5.34625L5.3125 4.83875V2.96875Z" fill="#5F73F1"/>
</svg>
