<svg width="9" height="10" viewBox="0 0 9 10" fill="none" xmlns="http://www.w3.org/2000/svg">
<path d="M4.41675 2.91663C3.59276 2.91663 2.91675 3.59264 2.91675 4.41663C2.91675 5.24061 3.59276 5.91663 4.41675 5.91663C5.24073 5.91663 5.91675 5.24061 5.91675 4.41663C5.91675 3.59264 5.24073 2.91663 4.41675 2.91663ZM4.41675 3.66663C4.8354 3.66663 5.16675 3.99797 5.16675 4.41663C5.16675 4.83528 4.8354 5.16663 4.41675 5.16663C3.99809 5.16663 3.66675 4.83528 3.66675 4.41663C3.66675 3.99797 3.99809 3.66663 4.41675 3.66663Z" fill="#5F73F1"/>
<path fill-rule="evenodd" clip-rule="evenodd" d="M6.65867 1.96681C6.96679 2.27487 7.21128 2.64061 7.37801 3.04316C7.54481 3.4457 7.6306 3.87715 7.6306 4.31287C7.6306 4.74859 7.54481 5.18003 7.37801 5.58258C7.21128 5.98512 6.96679 6.35087 6.65867 6.65892L4.31261 9.00365L1.96655 6.65826C1.65846 6.35021 1.41407 5.98442 1.24734 5.58188C1.0806 5.17935 0.99478 4.74791 0.99478 4.31221C0.99478 3.8765 1.0806 3.44507 1.24734 3.04253C1.41407 2.63999 1.65846 2.27423 1.96655 1.96615C2.27464 1.65805 2.6404 1.41367 3.04293 1.24693C3.44547 1.08019 3.87691 0.994376 4.31261 0.994376C4.74832 0.994376 5.17975 1.08019 5.58229 1.24693C5.98484 1.41367 6.35055 1.65805 6.65867 1.96615V1.96681ZM7.36196 7.36221C7.96513 6.75911 8.37588 5.99067 8.54235 5.15409C8.70875 4.31752 8.62336 3.45037 8.297 2.66233C7.97057 1.87428 7.41782 1.20072 6.70863 0.726828C5.99937 0.252939 5.16558 0 4.31261 0C3.45964 0 2.62583 0.252939 1.91662 0.726828C1.2074 1.20072 0.654647 1.87428 0.328243 2.66233C0.00184439 3.45037 -0.0835386 4.31752 0.0828949 5.15409C0.249328 5.99067 0.660101 6.75911 1.26326 7.36221L3.60866 9.70827C3.70108 9.80076 3.81082 9.87414 3.93161 9.92416C4.0524 9.97426 4.18186 10 4.31261 10C4.44336 10 4.57283 9.97426 4.69361 9.92416C4.8144 9.87414 4.92414 9.80076 5.01656 9.70827L7.36196 7.36221Z" fill="#5F73F1"/>
</svg>
