<svg width="6" height="10" viewBox="0 0 6 10" fill="none" xmlns="http://www.w3.org/2000/svg">
<path d="M1.47372 2.9064C1.47372 3.30049 1.12985 3.59605 0.736859 3.59605C0.343867 3.59605 0 3.30049 0 2.9064C0 1.28079 1.32635 0 2.89831 0C4.47028 0 5.7475 1.28079 5.7475 2.9064C5.7475 3.99014 5.10889 4.97536 4.12641 5.46797C3.83167 5.61576 3.58605 5.86206 3.58605 6.20689V6.65024C3.58605 7.04433 3.2913 7.38915 2.89831 7.38915C2.50532 7.38915 2.16145 7.04433 2.16145 6.65024V6.20689C2.16145 5.07388 2.75094 4.63054 3.58605 4.08866C4.02816 3.84236 4.27378 3.39901 4.27378 2.9064C4.27378 2.11822 3.68429 1.47783 2.89831 1.47783C2.11233 1.47783 1.47372 2.11822 1.47372 2.9064Z" fill="white"/>
<path fill-rule="evenodd" clip-rule="evenodd" d="M2.89809 8.32513C3.34021 8.32513 3.7332 8.66996 3.7332 9.16257C3.7332 9.60592 3.34021 10 2.89809 10C2.40686 10 2.06299 9.60592 2.06299 9.16257C2.06299 8.66996 2.40686 8.32513 2.89809 8.32513Z" fill="white"/>
</svg>
