<svg width="12" height="11" viewBox="0 0 12 11" fill="none" xmlns="http://www.w3.org/2000/svg">
<path fill-rule="evenodd" clip-rule="evenodd" d="M6.00004 0C6.43326 0 6.81722 0.27896 6.95109 0.690983L7.73689 3.10942H10.2798C10.713 3.10942 11.097 3.38838 11.2308 3.80041C11.3647 4.21243 11.2181 4.6638 10.8676 4.91844L8.81033 6.41312L9.59613 8.83156C9.73 9.24358 9.58334 9.69495 9.23286 9.94959C8.88237 10.2042 8.40777 10.2042 8.05729 9.94959L6.00004 8.45492L3.94279 9.94959C3.5923 10.2042 3.11771 10.2042 2.76722 9.94959C2.41673 9.69495 2.27007 9.24358 2.40395 8.83156L3.18975 6.41312L1.1325 4.91844C0.78201 4.6638 0.635352 4.21243 0.769227 3.80041C0.903101 3.38838 1.28706 3.10942 1.72028 3.10942H4.26318L5.04898 0.690983C5.18285 0.27896 5.56681 0 6.00004 0ZM4.98972 4.10942H1.72028L4.36532 6.03115L3.355 9.14058L6.00004 7.21885L8.64507 9.14058L7.63476 6.03115L10.2798 4.10942H7.01035L6.00004 1L4.98972 4.10942Z" fill="white"/>
</svg>
