<svg width="10" height="8" viewBox="0 0 10 8" fill="none" xmlns="http://www.w3.org/2000/svg">
<path fill-rule="evenodd" clip-rule="evenodd" d="M9.33489 1.16499C9.44019 1.27046 9.49936 1.41343 9.49936 1.56249C9.49936 1.71156 9.44019 1.85452 9.33489 1.95999L3.89739 7.39749C3.79192 7.50279 3.64895 7.56197 3.49989 7.56197C3.35083 7.56197 3.20785 7.50279 3.10239 7.39749L0.664888 4.95999C0.565528 4.85336 0.511438 4.71233 0.514003 4.5666C0.516576 4.42087 0.575608 4.28184 0.678673 4.17877C0.781731 4.07571 0.920773 4.01668 1.0665 4.01411C1.21222 4.01154 1.35325 4.06563 1.45989 4.16499L3.49989 6.20499L8.53989 1.16499C8.64534 1.05966 8.78829 1.00049 8.93739 1.00049C9.08641 1.00049 9.22944 1.05966 9.33489 1.16499Z" fill="white" stroke="white" stroke-width="0.5"/>
</svg>
