<svg width="18" height="18" viewBox="0 0 18 18" fill="none" xmlns="http://www.w3.org/2000/svg">
<path d="M12.0201 2.05758C9.27651 -0.68586 4.80117 -0.68586 2.05761 2.05758C-0.685869 4.80094 -0.685869 9.27609 2.05761 12.0195C4.50821 14.47 8.3177 14.7365 11.0613 12.819C11.1149 13.0855 11.2477 13.352 11.4606 13.5649L15.4566 17.5607C16.0424 18.1465 16.9748 18.1465 17.5606 17.5607C18.1465 16.9749 18.1465 16.0425 17.5606 15.4567L13.5647 11.4608C13.3518 11.248 13.0853 11.1144 12.8188 11.0616C14.7364 8.31813 14.4706 4.50879 12.0193 2.05828L12.0201 2.05758ZM10.7683 10.7414C8.7171 12.7926 5.38778 12.7926 3.33656 10.7414C1.28534 8.6903 1.28534 5.36113 3.33656 3.30999C5.38778 1.25886 8.7171 1.25886 10.7683 3.30999C12.8195 5.36113 12.8195 8.6903 10.7683 10.7414Z" fill="#D9DADA"/>
</svg>
