<svg width="6" height="9" viewBox="0 0 6 9" fill="none" xmlns="http://www.w3.org/2000/svg">
<path d="M1.82409 2.99202L0.788085 4.52802C0.284085 5.27042 0.256085 6.17922 0.704085 6.96002C1.13809 7.71522 1.93609 8.18882 2.84609 8.24002C2.90209 8.24002 2.94409 8.24002 3.00009 8.24002C3.05609 8.24002 3.09809 8.24002 3.15409 8.24002C4.06409 8.18882 4.87609 7.71522 5.29609 6.96002C5.74409 6.17922 5.70209 5.27042 5.21209 4.52802L4.17609 2.99202H1.82409ZM1.82409 2.48002L1.06809 1.32802C1.01209 1.23842 1.01209 1.11042 1.09609 1.03362C1.18009 0.944025 1.30609 0.918425 1.41809 0.956825L2.38409 1.30242V0.816025C2.38409 0.739225 2.41209 0.675225 2.46809 0.624025C2.52409 0.572825 2.60809 0.547225 2.67809 0.560025C3.49009 0.624025 4.41409 0.688025 4.55409 0.688025C4.63809 0.675225 4.73609 0.713625 4.79209 0.777625C4.93209 0.918425 4.94609 0.931224 4.12009 2.48002H1.82409Z" fill="#C4C4C4"/>
</svg>
