<svg width="18" height="15" viewBox="0 0 18 15" fill="none" xmlns="http://www.w3.org/2000/svg">
<path fill-rule="evenodd" clip-rule="evenodd" d="M0.25 1.4375C0.25 1.18886 0.348775 0.9504 0.524588 0.774588C0.7004 0.598775 0.938863 0.5 1.1875 0.5H16.8125C17.0611 0.5 17.2996 0.598775 17.4754 0.774588C17.6513 0.9504 17.75 1.18886 17.75 1.4375C17.75 1.68614 17.6513 1.9246 17.4754 2.10041C17.2996 2.27622 17.0611 2.375 16.8125 2.375H1.1875C0.938863 2.375 0.7004 2.27622 0.524588 2.10041C0.348775 1.9246 0.25 1.68614 0.25 1.4375ZM0.25 7.6875C0.25 7.43886 0.348775 7.2004 0.524588 7.02459C0.7004 6.84877 0.938863 6.75 1.1875 6.75H16.8125C17.0611 6.75 17.2996 6.84877 17.4754 7.02459C17.6513 7.2004 17.75 7.43886 17.75 7.6875C17.75 7.93614 17.6513 8.1746 17.4754 8.35041C17.2996 8.52623 17.0611 8.625 16.8125 8.625H1.1875C0.938863 8.625 0.7004 8.52623 0.524588 8.35041C0.348775 8.1746 0.25 7.93614 0.25 7.6875ZM1.1875 13C0.938863 13 0.7004 13.0988 0.524588 13.2746C0.348775 13.4504 0.25 13.6889 0.25 13.9375C0.25 14.1861 0.348775 14.4246 0.524588 14.6004C0.7004 14.7762 0.938863 14.875 1.1875 14.875H16.8125C17.0611 14.875 17.2996 14.7762 17.4754 14.6004C17.6513 14.4246 17.75 14.1861 17.75 13.9375C17.75 13.6889 17.6513 13.4504 17.4754 13.2746C17.2996 13.0988 17.0611 13 16.8125 13H1.1875Z" fill="#5F73F1"/>
</svg>
