<svg width="24" height="24" viewBox="0 0 24 24" fill="none" xmlns="http://www.w3.org/2000/svg">
<path fill-rule="evenodd" clip-rule="evenodd" d="M15.7501 7.5001C15.7501 8.49466 15.355 9.44848 14.6517 10.1517C13.9485 10.855 12.9947 11.2501 12.0001 11.2501C11.0055 11.2501 10.0517 10.855 9.34846 10.1517C8.64518 9.44848 8.25009 8.49466 8.25009 7.5001C8.25009 6.50554 8.64518 5.5517 9.34846 4.84844C10.0517 4.14518 11.0055 3.7501 12.0001 3.7501C12.9947 3.7501 13.9485 4.14518 14.6517 4.84844C15.355 5.5517 15.7501 6.50554 15.7501 7.5001ZM15.8416 12.1096C16.7885 11.3201 17.4692 10.258 17.7913 9.06781C18.1132 7.87763 18.0605 6.6172 17.6407 5.45797C17.2208 4.29874 16.454 3.29699 15.4447 2.58901C14.4353 1.88104 13.2323 1.50122 11.9993 1.50122C10.7664 1.50122 9.56342 1.88104 8.55402 2.58901C7.54463 3.29699 6.77783 4.29874 6.35798 5.45797C5.93811 6.6172 5.88555 7.87763 6.20747 9.06781C6.52938 10.258 7.21013 11.3201 8.15709 12.1096C6.68048 12.8077 5.4215 13.8942 4.51494 15.2528C3.60839 16.6115 3.08838 18.191 3.01059 19.8226C3.00336 20.1166 3.11151 20.4017 3.31191 20.6168C3.5123 20.8321 3.78899 20.9603 4.08275 20.974C4.37649 20.9878 4.66394 20.8859 4.88352 20.6903C5.10311 20.4947 5.23739 20.221 5.25759 19.9276C5.33937 18.1943 6.08544 16.5592 7.34096 15.3616C8.59646 14.1639 10.265 13.4957 12.0001 13.4957C13.7352 13.4957 15.4037 14.1639 16.6592 15.3616C17.9147 16.5592 18.6608 18.1943 18.7426 19.9276C18.7463 20.0774 18.7798 20.2249 18.8413 20.3615C18.9028 20.4982 18.991 20.6212 19.1006 20.7232C19.2103 20.8253 19.3393 20.9045 19.4798 20.9561C19.6205 21.0077 19.7701 21.0307 19.9198 21.0236C20.0695 21.0167 20.2162 20.9798 20.3515 20.9153C20.4866 20.8508 20.6077 20.7601 20.7073 20.6482C20.807 20.5363 20.8832 20.4056 20.9317 20.2639C20.9803 20.1221 20.9999 19.972 20.9896 19.8226C20.9116 18.1909 20.3914 16.6112 19.4846 15.2525C18.5777 13.8939 17.3185 12.8075 15.8416 12.1096Z" fill="#5F73F1"/>
</svg>
