<svg width="6" height="7" viewBox="0 0 6 7" fill="none" xmlns="http://www.w3.org/2000/svg">
<path d="M2.99992 0.333374C1.38916 0.333374 0.083252 1.63928 0.083252 3.25004C0.083252 4.85827 1.39183 6.16671 2.99992 6.16671C4.61054 6.16671 5.91659 4.86066 5.91659 3.25004C5.91659 1.64181 4.60815 0.333374 2.99992 0.333374ZM4.51434 3.69876H2.83165C2.81677 3.69876 2.80251 3.69285 2.79199 3.68233C2.78147 3.67181 2.77556 3.65755 2.77556 3.64267V1.2869C2.77556 1.27202 2.78147 1.25776 2.79199 1.24724C2.80251 1.23672 2.81677 1.23081 2.83165 1.23081H3.16819C3.18306 1.23081 3.19733 1.23672 3.20785 1.24724C3.21837 1.25776 3.22428 1.27202 3.22428 1.2869V3.25004H4.51434C4.52922 3.25004 4.54349 3.25595 4.554 3.26647C4.56452 3.27699 4.57043 3.29125 4.57043 3.30613V3.64267C4.57043 3.65755 4.56452 3.67181 4.554 3.68233C4.54349 3.69285 4.52922 3.69876 4.51434 3.69876Z" fill="#C4C4C4"/>
</svg>
